<svg xmlns="http://www.w3.org/2000/svg" width="409" height="324" viewBox="0 0 409 324">
<style>text{font-family:system-ui,-apple-system,'Segoe UI',Roboto,Helvetica,Arial,sans-serif}</style>
<text x="204" y="22.0" text-anchor="middle" font-size="15" font-weight="700" fill="#5a4218">Tech Stack</text>
<rect x="1" y="33" width="407" height="29" fill="#5a4218" rx="4"/>
<rect x="1" y="58" width="407" height="4" fill="#5a4218"/>
<text x="48" y="52.0" text-anchor="middle" font-size="13" font-weight="700" fill="#ffffff">Layer</text>
<text x="252" y="52.0" text-anchor="middle" font-size="13" font-weight="700" fill="#ffffff">Technology</text>
<rect x="1" y="62" width="407" height="29" fill="#ffffff"/>
<line x1="1" y1="91" x2="408" y2="91" stroke="#d4c4a0" stroke-width="0.5"/>
<text x="13" y="81.0" font-size="13" font-weight="400" fill="#2d2d2d">Framework</text>
<text x="107" y="81.0" font-size="13" font-weight="400" fill="#2d2d2d">React 19 + TypeScript 5.8</text>
<line x1="95" y1="62" x2="95" y2="91" stroke="#d4c4a0" stroke-width="0.5"/>
<rect x="1" y="91" width="407" height="29" fill="#f8f4ee"/>
<line x1="1" y1="120" x2="408" y2="120" stroke="#d4c4a0" stroke-width="0.5"/>
<text x="13" y="110.0" font-size="13" font-weight="400" fill="#2d2d2d">Build</text>
<text x="107" y="110.0" font-size="13" font-weight="400" fill="#2d2d2d">Vite 8</text>
<line x1="95" y1="91" x2="95" y2="120" stroke="#d4c4a0" stroke-width="0.5"/>
<rect x="1" y="120" width="407" height="29" fill="#ffffff"/>
<line x1="1" y1="149" x2="408" y2="149" stroke="#d4c4a0" stroke-width="0.5"/>
<text x="13" y="139.1" font-size="13" font-weight="400" fill="#2d2d2d">Styling</text>
<text x="107" y="139.1" font-size="13" font-weight="400" fill="#2d2d2d">Tailwind CSS 4</text>
<line x1="95" y1="120" x2="95" y2="149" stroke="#d4c4a0" stroke-width="0.5"/>
<rect x="1" y="149" width="407" height="29" fill="#f8f4ee"/>
<line x1="1" y1="178" x2="408" y2="178" stroke="#d4c4a0" stroke-width="0.5"/>
<text x="13" y="168.1" font-size="13" font-weight="400" fill="#2d2d2d">State</text>
<text x="107" y="168.1" font-size="13" font-weight="400" fill="#2d2d2d">Zustand 5</text>
<line x1="95" y1="149" x2="95" y2="178" stroke="#d4c4a0" stroke-width="0.5"/>
<rect x="1" y="178" width="407" height="29" fill="#ffffff"/>
<line x1="1" y1="207" x2="408" y2="207" stroke="#d4c4a0" stroke-width="0.5"/>
<text x="13" y="197.1" font-size="13" font-weight="400" fill="#2d2d2d">i18n</text>
<text x="107" y="197.1" font-size="13" font-weight="400" fill="#2d2d2d">i18next + react-i18next</text>
<line x1="95" y1="178" x2="95" y2="207" stroke="#d4c4a0" stroke-width="0.5"/>
<rect x="1" y="207" width="407" height="29" fill="#f8f4ee"/>
<line x1="1" y1="236" x2="408" y2="236" stroke="#d4c4a0" stroke-width="0.5"/>
<text x="13" y="226.1" font-size="13" font-weight="400" fill="#2d2d2d">PDF</text>
<text x="107" y="226.1" font-size="13" font-weight="400" fill="#2d2d2d">@react-pdf/renderer 4</text>
<line x1="95" y1="207" x2="95" y2="236" stroke="#d4c4a0" stroke-width="0.5"/>
<rect x="1" y="236" width="407" height="29" fill="#ffffff"/>
<line x1="1" y1="265" x2="408" y2="265" stroke="#d4c4a0" stroke-width="0.5"/>
<text x="13" y="255.1" font-size="13" font-weight="400" fill="#2d2d2d">Testing</text>
<text x="107" y="255.1" font-size="13" font-weight="400" fill="#2d2d2d">Vitest (92 unit tests across 7 files)</text>
<line x1="95" y1="236" x2="95" y2="265" stroke="#d4c4a0" stroke-width="0.5"/>
<rect x="1" y="265" width="407" height="29" fill="#f8f4ee"/>
<line x1="1" y1="294" x2="408" y2="294" stroke="#d4c4a0" stroke-width="0.5"/>
<text x="13" y="284.1" font-size="13" font-weight="400" fill="#2d2d2d">CI</text>
<text x="107" y="284.1" font-size="13" font-weight="400" fill="#2d2d2d">GitHub Actions (Node 20+22 matrix)</text>
<line x1="95" y1="265" x2="95" y2="294" stroke="#d4c4a0" stroke-width="0.5"/>
<rect x="1" y="294" width="407" height="29" fill="#ffffff"/>
<text x="13" y="313.1" font-size="13" font-weight="400" fill="#2d2d2d">Deploy</text>
<text x="107" y="313.1" font-size="13" font-weight="400" fill="#2d2d2d">GitHub Pages</text>
<line x1="95" y1="294" x2="95" y2="323" stroke="#d4c4a0" stroke-width="0.5"/>
<rect x="1" y="33" width="407" height="290" fill="none" stroke="#d4c4a0" stroke-width="1" rx="4"/>
</svg>