<svg xmlns="http://www.w3.org/2000/svg" width="1100" height="620" viewBox="0 0 1100 620">
  <defs>
    <style>
      .title { font: 700 22px Arial, sans-serif; fill: #1f2937; }
      .sub { font: 700 15px Arial, sans-serif; fill: #1f2937; }
      .lbl { font: 600 13px Arial, sans-serif; fill: #166534; }
      .txt { font: 12px Arial, sans-serif; fill: #334155; }
      .dim { font: 12px Arial, sans-serif; fill: #475569; }
      .face-front { fill: #bbf7d0; stroke: #14532d; stroke-width: 1.8; }
      .face-side { fill: #86efac; stroke: #14532d; stroke-width: 1.8; }
      .face-top { fill: #dcfce7; stroke: #14532d; stroke-width: 1.8; }
      .panel-edge { fill: #4ade80; stroke: #14532d; stroke-width: 1; }
      .door { fill: #dcfce7; stroke: #166534; stroke-width: 1.5; }
      .back { fill: #fef3c7; stroke: #92400e; stroke-width: 1; }
      .shelf { fill: #86efac; stroke: #14532d; stroke-width: 1; }
      .dimline { stroke: #475569; stroke-width: 1.2; }
      .dimtick { stroke: #475569; stroke-width: 1.2; }
    </style>
  </defs>

  <!-- Isometric: front face W=390 H=240 (0.5 px/mm); depth offset dx=100 dy=-60 -->
  <!-- Corners: FTL(180,220) FTR(570,220) FBL(180,460) FBR(570,460) -->
  <!--          BTL(280,160) BTR(670,160) BBL(280,400) BBR(670,400) -->

  <text x="40" y="36" class="title">Small Pantry Cabinet — 3D Isometric View (1 : 2)</text>
  <text x="40" y="58" class="txt">480 H × 780 W × 600 D mm | Right door removed to show interior</text>

  <!-- Back panel S-06 -->
  <polygon points="289,164 668,164 668,398 289,398" class="back" opacity="0.5"/>
  <text x="458" y="288" class="lbl" style="fill:#92400e">S-06</text>

  <!-- Right side panel S-01 -->
  <polygon points="570,220 670,160 670,400 570,460" class="face-side"/>
  <text x="604" y="320" class="lbl" transform="rotate(-15 604,320)">S-01</text>

  <!-- Top panel S-02 -->
  <polygon points="189,229 561,229 661,169 289,169" class="face-top"/>
  <polygon points="180,220 570,220 570,229 180,229" class="panel-edge"/>
  <polygon points="561,229 570,220 670,160 661,169" class="panel-edge"/>
  <text x="390" y="204" class="lbl">S-02</text>

  <!-- Left side panel S-01 (front strip + top edge) -->
  <polygon points="180,220 189,220 189,460 180,460" class="face-front"/>
  <polygon points="180,220 189,220 289,160 280,160" class="face-top" opacity="0.8"/>
  <text x="168" y="348" class="lbl" transform="rotate(-90 168,348)">S-01</text>

  <!-- Bottom panel S-03 (front edge) -->
  <polygon points="189,451 561,451 561,460 189,460" class="panel-edge"/>
  <text x="346" y="448" class="lbl">S-03</text>

  <!-- Fixed shelf S-04 at mid-height -->
  <polygon points="189,336 561,336 658,278 286,278" class="shelf" opacity="0.6"/>
  <polygon points="189,336 561,336 561,345 189,345" class="panel-edge"/>
  <text x="342" y="322" class="lbl">S-04 fixed</text>

  <!-- Left door S-05 (in place, semi-transparent) -->
  <rect x="181" y="221" width="194" height="238" class="door" opacity="0.35"/>
  <text x="254" y="344" class="lbl" style="fill:#166534">S-05</text>

  <!-- Carcass outline -->
  <line x1="180" y1="220" x2="570" y2="220" stroke="#14532d" stroke-width="2"/>
  <line x1="180" y1="460" x2="570" y2="460" stroke="#14532d" stroke-width="2"/>
  <line x1="180" y1="220" x2="180" y2="460" stroke="#14532d" stroke-width="2"/>
  <line x1="570" y1="220" x2="570" y2="460" stroke="#14532d" stroke-width="2"/>
  <line x1="180" y1="220" x2="280" y2="160" stroke="#14532d" stroke-width="2"/>
  <line x1="570" y1="220" x2="670" y2="160" stroke="#14532d" stroke-width="2"/>
  <line x1="280" y1="160" x2="670" y2="160" stroke="#14532d" stroke-width="2"/>

  <!-- Dimension lines -->
  <line x1="152" y1="220" x2="152" y2="460" class="dimline"/>
  <line x1="144" y1="220" x2="160" y2="220" class="dimtick"/>
  <line x1="144" y1="460" x2="160" y2="460" class="dimtick"/>
  <text x="130" y="348" class="dim" transform="rotate(-90 130,348)">480</text>

  <line x1="180" y1="486" x2="570" y2="486" class="dimline"/>
  <line x1="180" y1="478" x2="180" y2="494" class="dimtick"/>
  <line x1="570" y1="478" x2="570" y2="494" class="dimtick"/>
  <text x="352" y="506" class="dim">780</text>

  <line x1="588" y1="472" x2="688" y2="412" class="dimline"/>
  <line x1="580" y1="478" x2="596" y2="466" class="dimtick"/>
  <line x1="680" y1="418" x2="696" y2="406" class="dimtick"/>
  <text x="700" y="420" class="dim">600</text>

  <!-- Legend -->
  <g transform="translate(740,160)">
    <text x="0" y="0" class="sub">Parts Key</text>
    <rect x="0" y="14" width="320" height="250" fill="#f8fafc" stroke="#cbd5e1" stroke-width="1.2" rx="4"/>
    <text x="16" y="42" class="txt">S-01 × 2 — Sides 480 × 600 × 17</text>
    <text x="16" y="64" class="txt">S-02 × 1 — Top 746 × 600 × 17</text>
    <text x="16" y="86" class="txt">S-03 × 1 — Bottom 746 × 600 × 17</text>
    <text x="16" y="108" class="txt">S-04 × 1 — Fixed shelf 745 × 580 × 17</text>
    <text x="16" y="130" class="txt">S-05 × 2 — Door 474 × 386 × 17</text>
    <text x="16" y="152" class="txt">S-06 × 1 — Back 456 × 760 × 4</text>
    <line x1="16" y1="168" x2="300" y2="168" stroke="#e2e8f0" stroke-width="1"/>
    <rect x="16" y="184" width="16" height="12" class="face-front" stroke-width="1"/>
    <text x="40" y="194" class="txt">Carcass (17 mm plywood)</text>
    <rect x="16" y="206" width="16" height="12" class="door" opacity="0.35" stroke-width="1"/>
    <text x="40" y="216" class="txt">Door (semi-transparent)</text>
    <rect x="16" y="228" width="16" height="12" class="back" opacity="0.5" stroke-width="1"/>
    <text x="40" y="238" class="txt">Back panel (4 mm)</text>
  </g>

  <text x="40" y="560" class="txt">All dimensions in mm. Right door removed to show interior. Single fixed shelf at mid-height.</text>
</svg>