<svg xmlns="http://www.w3.org/2000/svg" width="1650" height="1080" viewBox="0 0 1650 1080">
  <defs>
    <style>
      .eyebrow { font: 700 11px Georgia, 'Times New Roman', serif; letter-spacing: 1.8px; fill: #8a6948; }
      .title { font: 700 24px Georgia, 'Times New Roman', serif; fill: #2c241d; }
      .sub { font: 700 15px Georgia, 'Times New Roman', serif; fill: #3a3027; }
      .lbl { font: 600 12px Arial, sans-serif; fill: #7a4f1d; }
      .txt { font: 12px Arial, sans-serif; fill: #5a4a3d; }
      .dim { font: 11px Arial, sans-serif; fill: #7b6757; }
      .outline { fill: #fcf8f1; stroke: #4a3e32; stroke-width: 2; }
      .panel { fill: #d9c5aa; stroke: #4a3e32; stroke-width: 1.5; }
      .shelf { fill: #cdb291; stroke: #4a3e32; stroke-width: 1.2; }
      .door { fill: #d8c1a3; stroke: #6f5238; stroke-width: 1.5; }
      .back { fill: #ead6b9; stroke: #9a6a36; stroke-width: 1.5; }
      .hidden { fill: none; stroke: #8b7a6b; stroke-width: 1; stroke-dasharray: 5 4; }
      .dimline { stroke: #7b6757; stroke-width: 1; }
      .dimtick { stroke: #7b6757; stroke-width: 1; }
      .guide { stroke: #b8aa98; stroke-width: 0.8; stroke-dasharray: 2 2; }
      .hinge { fill: #8f3e2c; }
      .card { fill: #f5ede1; stroke: #c9b59d; stroke-width: 1.2; }
    </style>
  </defs>

  <!-- Scale: 1:2  (1 mm = 0.5 px)  Small cabinet 480×780×600 -->
  <!-- Derived: H=240, W=390, D=300. Panel=8.5 px (17 mm). Back=2 px (4 mm). -->

  <rect x="0" y="0" width="1650" height="1080" fill="#f7f0e6"/>
  <rect x="24" y="18" width="1602" height="88" rx="10" class="card"/>
  <text x="44" y="42" class="eyebrow">PANTRY CABINET COLLECTION / PLAN A</text>
  <text x="44" y="68" class="title">Small Pantry Cabinet — Orthographic Plate</text>
  <text x="44" y="90" class="txt">Upper-unit companion piece | 480 H × 780 W × 600 D mm | matching premium material language</text>

  <!-- ===== FRONT ELEVATION (doors closed) ===== -->
  <g transform="translate(60,110)">
    <text x="0" y="-16" class="sub">A — Front Elevation (doors closed)</text>
    <rect x="0" y="0" width="390" height="240" class="outline"/>
    <line x1="195" y1="0" x2="195" y2="240" class="guide"/>
    <!-- doors: 474×386 → 237×193 each; reveal outer 1.5px (3mm), center 0.5px (1mm per door) -->
    <rect x="1.5" y="1.5" width="193" height="237" class="door"/>
    <text x="68" y="124" class="lbl">S-05</text>
    <rect x="195.5" y="1.5" width="193" height="237" class="door"/>
    <text x="262" y="124" class="lbl">S-05</text>
    <!-- hinge indicators (2 per door) -->
    <circle cx="8" cy="41.5" r="3.5" class="hinge"/>
    <text x="16" y="44" class="dim">H1 80</text>
    <circle cx="8" cy="198.5" r="3.5" class="hinge"/>
    <text x="16" y="201" class="dim">H2 394</text>
    <circle cx="382" cy="41.5" r="3.5" class="hinge"/>
    <circle cx="382" cy="198.5" r="3.5" class="hinge"/>
    <!-- Width dimension -->
    <line x1="0" y1="262" x2="390" y2="262" class="dimline"/>
    <line x1="0" y1="256" x2="0" y2="268" class="dimtick"/>
    <line x1="390" y1="256" x2="390" y2="268" class="dimtick"/>
    <text x="180" y="280" class="dim">780</text>
    <!-- Height dimension -->
    <line x1="-26" y1="0" x2="-26" y2="240" class="dimline"/>
    <line x1="-32" y1="0" x2="-20" y2="0" class="dimtick"/>
    <line x1="-32" y1="240" x2="-20" y2="240" class="dimtick"/>
    <text x="-48" y="128" class="dim" transform="rotate(-90 -48,128)">480</text>
  </g>

  <!-- ===== FRONT ELEVATION (open) ===== -->
  <g transform="translate(560,110)">
    <text x="0" y="-16" class="sub">B — Front Elevation (open)</text>
    <rect x="0" y="0" width="390" height="240" class="outline"/>
    <!-- side panels S-01 -->
    <rect x="0" y="0" width="8.5" height="240" class="panel"/>
    <text x="12" y="126" class="lbl" transform="rotate(-90 12,126)">S-01</text>
    <rect x="381.5" y="0" width="8.5" height="240" class="panel"/>
    <!-- top S-02 -->
    <rect x="8.5" y="0" width="373" height="8.5" class="panel"/>
    <text x="162" y="22" class="lbl">S-02</text>
    <!-- bottom S-03 -->
    <rect x="8.5" y="231.5" width="373" height="8.5" class="panel"/>
    <text x="162" y="228" class="lbl">S-03</text>
    <!-- fixed shelf S-04 at mid-height (y≈120-4.25) -->
    <rect x="8.5" y="111.5" width="372.5" height="8.5" class="shelf"/>
    <text x="148" y="108" class="lbl">S-04 fixed shelf</text>
    <!-- Internal width dimension -->
    <line x1="8.5" y1="262" x2="381.5" y2="262" class="dimline"/>
    <line x1="8.5" y1="256" x2="8.5" y2="268" class="dimtick"/>
    <line x1="381.5" y1="256" x2="381.5" y2="268" class="dimtick"/>
    <text x="178" y="280" class="dim">746</text>
  </g>

  <!-- ===== LEFT SIDE ELEVATION ===== -->
  <g transform="translate(1080,110)">
    <text x="0" y="-16" class="sub">C — Left Side Elevation</text>
    <rect x="0" y="0" width="300" height="240" class="panel"/>
    <text x="132" y="126" class="lbl">S-01</text>
    <!-- hidden: top, bottom, shelf -->
    <line x1="8" y1="8.5" x2="290" y2="8.5" class="hidden"/>
    <line x1="8" y1="231.5" x2="290" y2="231.5" class="hidden"/>
    <line x1="8" y1="115.75" x2="290" y2="115.75" class="hidden"/>
    <!-- shelf depth marker -->
    <line x1="290" y1="8.5" x2="290" y2="231.5" class="guide"/>
    <text x="256" y="126" class="dim">580</text>
    <!-- back panel -->
    <rect x="298" y="5" width="2" height="230" class="back"/>
    <text x="272" y="244" class="dim">back</text>
    <!-- dimensions -->
    <line x1="0" y1="262" x2="300" y2="262" class="dimline"/>
    <line x1="0" y1="256" x2="0" y2="268" class="dimtick"/>
    <line x1="300" y1="256" x2="300" y2="268" class="dimtick"/>
    <text x="136" y="280" class="dim">600</text>
    <line x1="330" y1="0" x2="330" y2="240" class="dimline"/>
    <line x1="324" y1="0" x2="336" y2="0" class="dimtick"/>
    <line x1="324" y1="240" x2="336" y2="240" class="dimtick"/>
    <text x="346" y="128" class="dim" transform="rotate(-90 346,128)">480</text>
  </g>

  <!-- ===== BACK ELEVATION ===== -->
  <g transform="translate(60,530)">
    <text x="0" y="-16" class="sub">D — Back Elevation</text>
    <rect x="0" y="0" width="390" height="240" class="outline"/>
    <rect x="5" y="5" width="380" height="230" class="back"/>
    <text x="112" y="126" class="lbl">S-06 back 456 × 760 × 4</text>
    <line x1="0" y1="262" x2="390" y2="262" class="dimline"/>
    <line x1="0" y1="256" x2="0" y2="268" class="dimtick"/>
    <line x1="390" y1="256" x2="390" y2="268" class="dimtick"/>
    <text x="180" y="280" class="dim">780</text>
  </g>

  <!-- ===== TOP VIEW ===== -->
  <g transform="translate(560,530)">
    <text x="0" y="-16" class="sub">E — Top View (plan)</text>
    <rect x="0" y="0" width="390" height="300" class="outline"/>
    <rect x="0" y="0" width="8.5" height="300" class="panel"/>
    <rect x="381.5" y="0" width="8.5" height="300" class="panel"/>
    <rect x="8.5" y="0" width="373" height="300" class="shelf" opacity="0.2"/>
    <text x="132" y="156" class="lbl">S-02 top 746 × 600</text>
    <line x1="0" y1="298" x2="390" y2="298" class="back" stroke-width="1.5"/>
    <text x="312" y="294" class="dim">back</text>
    <!-- dimensions -->
    <line x1="0" y1="322" x2="390" y2="322" class="dimline"/>
    <line x1="0" y1="316" x2="0" y2="328" class="dimtick"/>
    <line x1="390" y1="316" x2="390" y2="328" class="dimtick"/>
    <text x="180" y="340" class="dim">780</text>
    <line x1="414" y1="0" x2="414" y2="300" class="dimline"/>
    <line x1="408" y1="0" x2="420" y2="0" class="dimtick"/>
    <line x1="408" y1="300" x2="420" y2="300" class="dimtick"/>
    <text x="430" y="158" class="dim" transform="rotate(-90 430,158)">600</text>
  </g>

  <!-- ===== LEGEND ===== -->
  <g transform="translate(1080,530)">
    <text x="0" y="-16" class="sub">Legend &amp; Notes</text>
    <rect x="0" y="0" width="380" height="310" class="card" rx="4"/>
    <rect x="16" y="18" width="16" height="12" class="panel"/>
    <text x="40" y="28" class="txt">Carcass panel (17 mm sandwich plywood)</text>
    <rect x="16" y="42" width="16" height="12" class="shelf"/>
    <text x="40" y="52" class="txt">Fixed shelf</text>
    <rect x="16" y="66" width="16" height="12" class="door"/>
    <text x="40" y="76" class="txt">Door panel</text>
    <rect x="16" y="90" width="16" height="12" class="back"/>
    <text x="40" y="100" class="txt">Back panel (4 mm)</text>
    <circle cx="24" cy="120" r="3" class="hinge"/>
    <text x="40" y="124" class="txt">Hinge cup position (red)</text>

    <text x="16" y="162" class="txt">Scale 1 : 2 (1 mm = 0.5 px)</text>
    <text x="16" y="182" class="txt">Dimensions in mm</text>
    <text x="16" y="210" class="txt">Notes:</text>
    <text x="16" y="230" class="txt">1. Full-height sides capture top and bottom.</text>
    <text x="16" y="250" class="txt">2. Fixed shelf depth reduced to 580 for door clearance.</text>
    <text x="16" y="270" class="txt">3. Two 110° hinges per door (2 per side).</text>
    <text x="16" y="290" class="txt">4. Can be used as wall-mounted or stacked on Cabinet 1.</text>
  </g>
</svg>
