<svg xmlns="http://www.w3.org/2000/svg" width="862" height="89" viewBox="0 0 862 89">
<style>text{font-family:system-ui,-apple-system,'Segoe UI',Roboto,Helvetica,Arial,sans-serif}</style>
<rect x="1" y="1" width="860" height="29" fill="#5a4218" rx="4"/>
<rect x="1" y="26" width="860" height="4" fill="#5a4218"/>
<text x="75" y="20.1" text-anchor="middle" font-size="13" font-weight="700" fill="#ffffff">Strip</text>
<text x="314" y="20.1" text-anchor="middle" font-size="13" font-weight="700" fill="#ffffff">Part</text>
<text x="580" y="20.1" text-anchor="middle" font-size="13" font-weight="700" fill="#ffffff">Size</text>
<text x="771" y="20.1" text-anchor="middle" font-size="13" font-weight="700" fill="#ffffff">Length consumed</text>
<rect x="1" y="30" width="860" height="29" fill="#ffffff"/>
<line x1="1" y1="59" x2="861" y2="59" stroke="#d4c4a0" stroke-width="0.5"/>
<text x="13" y="49.0" font-size="13" font-weight="400" fill="#2d2d2d">Strip 1 (384 mm)</text>
<text x="162" y="49.0" font-size="13" font-weight="400" fill="#2d2d2d">L-05 adj. shelf ×1 + L-05 adj. shelf ×1</text>
<line x1="150" y1="30" x2="150" y2="59" stroke="#d4c4a0" stroke-width="0.5"/>
<text x="490" y="49.0" font-size="13" font-weight="400" fill="#2d2d2d">964 + 4 + 964 = 1932 mm</text>
<line x1="478" y1="30" x2="478" y2="59" stroke="#d4c4a0" stroke-width="0.5"/>
<text x="693" y="49.0" font-size="13" font-weight="400" fill="#2d2d2d">(offcut: 504 × 384)</text>
<line x1="681" y1="30" x2="681" y2="59" stroke="#d4c4a0" stroke-width="0.5"/>
<rect x="1" y="59" width="860" height="29" fill="#f8f4ee"/>
<text x="13" y="78.0" font-size="13" font-weight="400" fill="#2d2d2d">Strip 2 (386 mm)</text>
<text x="162" y="78.0" font-size="13" font-weight="400" fill="#2d2d2d">S-05 door ×1 + S-05 door ×1</text>
<line x1="150" y1="59" x2="150" y2="88" stroke="#d4c4a0" stroke-width="0.5"/>
<text x="490" y="78.0" font-size="13" font-weight="400" fill="#2d2d2d">474 + 4 + 474 = 952 mm</text>
<line x1="478" y1="59" x2="478" y2="88" stroke="#d4c4a0" stroke-width="0.5"/>
<text x="693" y="78.0" font-size="13" font-weight="400" fill="#2d2d2d">(offcut: 1484 × 386)</text>
<line x1="681" y1="59" x2="681" y2="88" stroke="#d4c4a0" stroke-width="0.5"/>
<rect x="1" y="1" width="860" height="87" fill="none" stroke="#d4c4a0" stroke-width="1" rx="4"/>
</svg>