<svg xmlns="http://www.w3.org/2000/svg" width="925" height="118" viewBox="0 0 925 118">
<style>text{font-family:system-ui,-apple-system,'Segoe UI',Roboto,Helvetica,Arial,sans-serif}</style>
<rect x="1" y="1" width="923" height="29" fill="#5a4218" rx="4"/>
<rect x="1" y="26" width="923" height="4" fill="#5a4218"/>
<text x="79" y="20.1" text-anchor="middle" font-size="13" font-weight="700" fill="#ffffff">Strip</text>
<text x="314" y="20.1" text-anchor="middle" font-size="13" font-weight="700" fill="#ffffff">Part</text>
<text x="611" y="20.1" text-anchor="middle" font-size="13" font-weight="700" fill="#ffffff">Size</text>
<text x="838" y="20.1" text-anchor="middle" font-size="13" font-weight="700" fill="#ffffff">Length consumed</text>
<rect x="1" y="30" width="923" height="29" fill="#ffffff"/>
<line x1="1" y1="59" x2="924" y2="59" stroke="#d4c4a0" stroke-width="0.5"/>
<text x="13" y="49.0" font-size="13" font-weight="400" fill="#2d2d2d">Strip 1 (404 mm)</text>
<text x="170" y="49.0" font-size="13" font-weight="400" fill="#2d2d2d">S-01 side + S-02 top + S-03 bottom</text>
<line x1="158" y1="30" x2="158" y2="59" stroke="#d4c4a0" stroke-width="0.5"/>
<text x="482" y="49.0" font-size="13" font-weight="400" fill="#2d2d2d">480 + 4 + 746 + 4 + 746 = 1980 mm</text>
<line x1="470" y1="30" x2="470" y2="59" stroke="#d4c4a0" stroke-width="0.5"/>
<text x="764" y="49.0" font-size="13" font-weight="400" fill="#2d2d2d">(offcut: 456 × 404)</text>
<line x1="752" y1="30" x2="752" y2="59" stroke="#d4c4a0" stroke-width="0.5"/>
<rect x="1" y="59" width="923" height="29" fill="#f8f4ee"/>
<line x1="1" y1="88" x2="924" y2="88" stroke="#d4c4a0" stroke-width="0.5"/>
<text x="13" y="78.0" font-size="13" font-weight="400" fill="#2d2d2d">Strip 2 (404 mm*)</text>
<text x="170" y="78.0" font-size="13" font-weight="400" fill="#2d2d2d">L-05 adj. shelf + S-04 fixed shelf</text>
<line x1="158" y1="59" x2="158" y2="88" stroke="#d4c4a0" stroke-width="0.5"/>
<text x="482" y="78.0" font-size="13" font-weight="400" fill="#2d2d2d">964 + 4 + 745 = 1713 mm</text>
<line x1="470" y1="59" x2="470" y2="88" stroke="#d4c4a0" stroke-width="0.5"/>
<text x="764" y="78.0" font-size="13" font-weight="400" fill="#2d2d2d">(offcut: 723 × 404)</text>
<line x1="752" y1="59" x2="752" y2="88" stroke="#d4c4a0" stroke-width="0.5"/>
<rect x="1" y="88" width="923" height="29" fill="#ffffff"/>
<text x="13" y="107.0" font-size="13" font-weight="400" fill="#2d2d2d">Strip 3 (384 mm)</text>
<text x="170" y="107.0" font-size="13" font-weight="400" fill="#2d2d2d">L-04 fixed shelf + L-05 adj. shelf ×1</text>
<line x1="158" y1="88" x2="158" y2="117" stroke="#d4c4a0" stroke-width="0.5"/>
<text x="482" y="107.0" font-size="13" font-weight="400" fill="#2d2d2d">966 + 4 + 964 = 1934 mm</text>
<line x1="470" y1="88" x2="470" y2="117" stroke="#d4c4a0" stroke-width="0.5"/>
<text x="764" y="107.0" font-size="13" font-weight="400" fill="#2d2d2d">(offcut: 502 × 384)</text>
<line x1="752" y1="88" x2="752" y2="117" stroke="#d4c4a0" stroke-width="0.5"/>
<rect x="1" y="1" width="923" height="116" fill="none" stroke="#d4c4a0" stroke-width="1" rx="4"/>
</svg>