<svg xmlns="http://www.w3.org/2000/svg" width="979" height="118" viewBox="0 0 979 118">
<style>text{font-family:system-ui,-apple-system,'Segoe UI',Roboto,Helvetica,Arial,sans-serif}</style>
<rect x="1" y="1" width="977" height="29" fill="#5a4218" rx="4"/>
<rect x="1" y="26" width="977" height="4" fill="#5a4218"/>
<text x="75" y="20.1" text-anchor="middle" font-size="13" font-weight="700" fill="#ffffff">Strip</text>
<text x="306" y="20.1" text-anchor="middle" font-size="13" font-weight="700" fill="#ffffff">Part</text>
<text x="603" y="20.1" text-anchor="middle" font-size="13" font-weight="700" fill="#ffffff">Size</text>
<text x="861" y="20.1" text-anchor="middle" font-size="13" font-weight="700" fill="#ffffff">Length consumed</text>
<rect x="1" y="30" width="977" height="29" fill="#ffffff"/>
<line x1="1" y1="59" x2="978" y2="59" stroke="#d4c4a0" stroke-width="0.5"/>
<text x="13" y="49.0" font-size="13" font-weight="400" fill="#2d2d2d">Strip 1 (404 mm)</text>
<text x="162" y="49.0" font-size="13" font-weight="400" fill="#2d2d2d">L-01 side panel ×1</text>
<line x1="150" y1="30" x2="150" y2="59" stroke="#d4c4a0" stroke-width="0.5"/>
<text x="474" y="49.0" font-size="13" font-weight="400" fill="#2d2d2d">2000 × 404</text>
<line x1="462" y1="30" x2="462" y2="59" stroke="#d4c4a0" stroke-width="0.5"/>
<text x="756" y="49.0" font-size="13" font-weight="400" fill="#2d2d2d">2000 mm (offcut: 436 × 404)</text>
<line x1="744" y1="30" x2="744" y2="59" stroke="#d4c4a0" stroke-width="0.5"/>
<rect x="1" y="59" width="977" height="29" fill="#f8f4ee"/>
<line x1="1" y1="88" x2="978" y2="88" stroke="#d4c4a0" stroke-width="0.5"/>
<text x="13" y="78.0" font-size="13" font-weight="400" fill="#2d2d2d">Strip 2 (404 mm)</text>
<text x="162" y="78.0" font-size="13" font-weight="400" fill="#2d2d2d">L-01 side panel ×1</text>
<line x1="150" y1="59" x2="150" y2="88" stroke="#d4c4a0" stroke-width="0.5"/>
<text x="474" y="78.0" font-size="13" font-weight="400" fill="#2d2d2d">2000 × 404</text>
<line x1="462" y1="59" x2="462" y2="88" stroke="#d4c4a0" stroke-width="0.5"/>
<text x="756" y="78.0" font-size="13" font-weight="400" fill="#2d2d2d">2000 mm (offcut: 436 × 404)</text>
<line x1="744" y1="59" x2="744" y2="88" stroke="#d4c4a0" stroke-width="0.5"/>
<rect x="1" y="88" width="977" height="29" fill="#ffffff"/>
<text x="13" y="107.0" font-size="13" font-weight="400" fill="#2d2d2d">Strip 3 (404 mm)</text>
<text x="162" y="107.0" font-size="13" font-weight="400" fill="#2d2d2d">L-02 top + L-03 bottom + S-01 side ×1</text>
<line x1="150" y1="88" x2="150" y2="117" stroke="#d4c4a0" stroke-width="0.5"/>
<text x="474" y="107.0" font-size="13" font-weight="400" fill="#2d2d2d">966 + 4 + 966 + 4 + 480 = 2420 mm</text>
<line x1="462" y1="88" x2="462" y2="117" stroke="#d4c4a0" stroke-width="0.5"/>
<text x="756" y="107.0" font-size="13" font-weight="400" fill="#2d2d2d">2420 mm (offcut: 16 × 404)</text>
<line x1="744" y1="88" x2="744" y2="117" stroke="#d4c4a0" stroke-width="0.5"/>
<rect x="1" y="1" width="977" height="116" fill="none" stroke="#d4c4a0" stroke-width="1" rx="4"/>
</svg>