<svg xmlns="http://www.w3.org/2000/svg" width="1092" height="237" viewBox="0 0 1092 237">
<style>text{font-family:system-ui,-apple-system,'Segoe UI',Roboto,Helvetica,Arial,sans-serif}</style>
<text x="546" y="22.0" text-anchor="middle" font-size="15" font-weight="700" fill="#5a4218">Key Change: Depth 600 → 404 mm</text>
<rect x="1" y="33" width="1090" height="29" fill="#5a4218" rx="4"/>
<rect x="1" y="58" width="1090" height="4" fill="#5a4218"/>
<text x="107" y="52.0" text-anchor="middle" font-size="13" font-weight="700" fill="#ffffff">Parameter</text>
<text x="314" y="52.0" text-anchor="middle" font-size="13" font-weight="700" fill="#ffffff">Plan A</text>
<text x="513" y="52.0" text-anchor="middle" font-size="13" font-weight="700" fill="#ffffff">Plan B</text>
<text x="851" y="52.0" text-anchor="middle" font-size="13" font-weight="700" fill="#ffffff">Reason</text>
<rect x="1" y="62" width="1090" height="29" fill="#ffffff"/>
<line x1="1" y1="91" x2="1091" y2="91" stroke="#d4c4a0" stroke-width="0.5"/>
<text x="13" y="81.0" font-size="13" font-weight="400" fill="#2d2d2d">Depth (both cabinets)</text>
<text x="224" y="81.0" font-size="13" font-weight="400" fill="#2d2d2d">600 mm</text>
<line x1="212" y1="62" x2="212" y2="91" stroke="#d4c4a0" stroke-width="0.5"/>
<text x="428" y="81.0" font-size="13" font-weight="700" fill="#2d2d2d">404 mm</text>
<line x1="416" y1="62" x2="416" y2="91" stroke="#d4c4a0" stroke-width="0.5"/>
<text x="623" y="81.0" font-size="13" font-weight="400" fill="#2d2d2d">Max depth that fits 3 rip-strips per sheet (3 × 404 + 2 × 4 kerf = 1220 mm exactly)</text>
<line x1="611" y1="62" x2="611" y2="91" stroke="#d4c4a0" stroke-width="0.5"/>
<rect x="1" y="91" width="1090" height="29" fill="#f8f4ee"/>
<line x1="1" y1="120" x2="1091" y2="120" stroke="#d4c4a0" stroke-width="0.5"/>
<text x="13" y="110.0" font-size="13" font-weight="400" fill="#2d2d2d">17 mm sheet count</text>
<text x="224" y="110.0" font-size="13" font-weight="700" fill="#2d2d2d">5</text>
<line x1="212" y1="91" x2="212" y2="120" stroke="#d4c4a0" stroke-width="0.5"/>
<text x="428" y="110.0" font-size="13" font-weight="700" fill="#2d2d2d">4</text>
<line x1="416" y1="91" x2="416" y2="120" stroke="#d4c4a0" stroke-width="0.5"/>
<text x="623" y="110.0" font-size="13" font-weight="400" fill="#2d2d2d">1 sheet saved (20 % reduction)</text>
<line x1="611" y1="91" x2="611" y2="120" stroke="#d4c4a0" stroke-width="0.5"/>
<rect x="1" y="120" width="1090" height="29" fill="#ffffff"/>
<line x1="1" y1="149" x2="1091" y2="149" stroke="#d4c4a0" stroke-width="0.5"/>
<text x="13" y="139.1" font-size="13" font-weight="400" fill="#2d2d2d">4 mm backer sheets</text>
<text x="224" y="139.1" font-size="13" font-weight="400" fill="#2d2d2d">1</text>
<line x1="212" y1="120" x2="212" y2="149" stroke="#d4c4a0" stroke-width="0.5"/>
<text x="428" y="139.1" font-size="13" font-weight="400" fill="#2d2d2d">1</text>
<line x1="416" y1="120" x2="416" y2="149" stroke="#d4c4a0" stroke-width="0.5"/>
<text x="623" y="139.1" font-size="13" font-weight="400" fill="#2d2d2d">Unchanged</text>
<line x1="611" y1="120" x2="611" y2="149" stroke="#d4c4a0" stroke-width="0.5"/>
<rect x="1" y="149" width="1090" height="29" fill="#f8f4ee"/>
<line x1="1" y1="178" x2="1091" y2="178" stroke="#d4c4a0" stroke-width="0.5"/>
<text x="13" y="168.1" font-size="13" font-weight="400" fill="#2d2d2d">Carcass material</text>
<text x="224" y="168.1" font-size="13" font-weight="400" fill="#2d2d2d">Sandwich plywood</text>
<line x1="212" y1="149" x2="212" y2="178" stroke="#d4c4a0" stroke-width="0.5"/>
<text x="428" y="168.1" font-size="13" font-weight="700" fill="#2d2d2d">Sandwich plywood 17 mm</text>
<line x1="416" y1="149" x2="416" y2="178" stroke="#d4c4a0" stroke-width="0.5"/>
<text x="623" y="168.1" font-size="13" font-weight="400" fill="#2d2d2d">Same material family as Plan A</text>
<line x1="611" y1="149" x2="611" y2="178" stroke="#d4c4a0" stroke-width="0.5"/>
<rect x="1" y="178" width="1090" height="29" fill="#ffffff"/>
<line x1="1" y1="207" x2="1091" y2="207" stroke="#d4c4a0" stroke-width="0.5"/>
<text x="13" y="197.1" font-size="13" font-weight="400" fill="#2d2d2d">Edge banding</text>
<text x="224" y="197.1" font-size="13" font-weight="400" fill="#2d2d2d">All visible front edges</text>
<line x1="212" y1="178" x2="212" y2="207" stroke="#d4c4a0" stroke-width="0.5"/>
<text x="428" y="197.1" font-size="13" font-weight="700" fill="#2d2d2d">Optional / none</text>
<line x1="416" y1="178" x2="416" y2="207" stroke="#d4c4a0" stroke-width="0.5"/>
<text x="623" y="197.1" font-size="13" font-weight="400" fill="#2d2d2d">Storage room</text>
<line x1="611" y1="178" x2="611" y2="207" stroke="#d4c4a0" stroke-width="0.5"/>
<rect x="1" y="207" width="1090" height="29" fill="#f8f4ee"/>
<text x="13" y="226.1" font-size="13" font-weight="400" fill="#2d2d2d">Cabinet widths &amp; heights</text>
<text x="224" y="226.1" font-size="13" font-weight="400" fill="#2d2d2d">Unchanged</text>
<line x1="212" y1="207" x2="212" y2="236" stroke="#d4c4a0" stroke-width="0.5"/>
<text x="428" y="226.1" font-size="13" font-weight="400" fill="#2d2d2d">Unchanged</text>
<line x1="416" y1="207" x2="416" y2="236" stroke="#d4c4a0" stroke-width="0.5"/>
<text x="623" y="226.1" font-size="13" font-weight="400" fill="#2d2d2d">—</text>
<line x1="611" y1="207" x2="611" y2="236" stroke="#d4c4a0" stroke-width="0.5"/>
<rect x="1" y="33" width="1090" height="203" fill="none" stroke="#d4c4a0" stroke-width="1" rx="4"/>
</svg>