<svg xmlns="http://www.w3.org/2000/svg" width="737" height="121" viewBox="0 0 737 121">
<style>text{font-family:system-ui,-apple-system,'Segoe UI',Roboto,Helvetica,Arial,sans-serif}</style>
<text x="368" y="22.0" text-anchor="middle" font-size="15" font-weight="700" fill="#5a4218">Consumables</text>
<rect x="1" y="33" width="735" height="29" fill="#5a4218" rx="4"/>
<rect x="1" y="58" width="735" height="4" fill="#5a4218"/>
<text x="99" y="52.0" text-anchor="middle" font-size="13" font-weight="700" fill="#ffffff">Item</text>
<text x="263" y="52.0" text-anchor="middle" font-size="13" font-weight="700" fill="#ffffff">Qty</text>
<text x="533" y="52.0" text-anchor="middle" font-size="13" font-weight="700" fill="#ffffff">Notes</text>
<rect x="1" y="62" width="735" height="29" fill="#ffffff"/>
<line x1="1" y1="91" x2="736" y2="91" stroke="#d4c4a0" stroke-width="0.5"/>
<text x="13" y="81.0" font-size="13" font-weight="400" fill="#2d2d2d">PVC edge banding 22 mm</text>
<text x="209" y="81.0" font-size="13" font-weight="700" fill="#2d2d2d">0 m (optional)</text>
<line x1="197" y1="62" x2="197" y2="91" stroke="#d4c4a0" stroke-width="0.5"/>
<text x="342" y="81.0" font-size="13" font-weight="400" fill="#2d2d2d">Storage room — skip unless desired on door fronts</text>
<line x1="330" y1="62" x2="330" y2="91" stroke="#d4c4a0" stroke-width="0.5"/>
<rect x="1" y="91" width="735" height="29" fill="#f8f4ee"/>
<text x="13" y="110.0" font-size="13" font-weight="400" fill="#2d2d2d">Wood glue (PVA)</text>
<text x="209" y="110.0" font-size="13" font-weight="400" fill="#2d2d2d">250 ml</text>
<line x1="197" y1="91" x2="197" y2="120" stroke="#d4c4a0" stroke-width="0.5"/>
<text x="342" y="110.0" font-size="13" font-weight="400" fill="#2d2d2d">Optional</text>
<line x1="330" y1="91" x2="330" y2="120" stroke="#d4c4a0" stroke-width="0.5"/>
<rect x="1" y="33" width="735" height="87" fill="none" stroke="#d4c4a0" stroke-width="1" rx="4"/>
</svg>