<svg xmlns="http://www.w3.org/2000/svg" width="1100" height="950" viewBox="0 0 1100 950">
  <defs>
    <style>
      .eyebrow { font: 700 11px Georgia, 'Times New Roman', serif; letter-spacing: 1.8px; fill: #8a6948; }
      .title { font: 700 24px Georgia, 'Times New Roman', serif; fill: #2c241d; }
      .sub { font: 700 15px Georgia, 'Times New Roman', serif; fill: #3a3027; }
      .lbl { font: 600 13px Arial, sans-serif; fill: #7a4f1d; }
      .txt { font: 12px Arial, sans-serif; fill: #5a4a3d; }
      .dim { font: 12px Arial, sans-serif; fill: #7b6757; }
      .face-front { fill: #d9c5aa; stroke: #4a3e32; stroke-width: 1.8; }
      .face-side { fill: #b99a78; stroke: #4a3e32; stroke-width: 1.8; }
      .face-top { fill: #eadbc4; stroke: #4a3e32; stroke-width: 1.8; }
      .panel-edge { fill: #9f7f61; stroke: #4a3e32; stroke-width: 1; }
      .door { fill: #b18d69; stroke: #6f5238; stroke-width: 1.5; }
      .back { fill: #ead6b9; stroke: #9a6a36; stroke-width: 1; }
      .shelf { fill: #cdb291; stroke: #4a3e32; stroke-width: 1; }
      .shelf-adj { fill: none; stroke: #8b7a6b; stroke-width: 1.2; stroke-dasharray: 6 4; }
      .dimline { stroke: #7b6757; stroke-width: 1.2; }
      .dimtick { stroke: #7b6757; stroke-width: 1.2; }
      .card { fill: #f5ede1; stroke: #c9b59d; stroke-width: 1.2; }
    </style>
  </defs>

  <!-- Isometric: front face W=300 H=600 (0.3 px/mm); depth offset dx=100 dy=-60 -->
  <!-- Corners: FTL(210,220) FTR(510,220) FBL(210,820) FBR(510,820) -->
  <!--          BTL(310,160) BTR(610,160) BBL(310,760) BBR(610,760) -->

  <rect x="0" y="0" width="1100" height="950" fill="#f7f0e6"/>
  <rect x="24" y="18" width="1052" height="88" rx="10" class="card"/>
  <text x="44" y="42" class="eyebrow">PANTRY CABINET COLLECTION / PLAN A</text>
  <text x="44" y="68" class="title">Large Pantry Cabinet — Isometric Display</text>
  <text x="44" y="90" class="txt">Furniture-style presentation view | Right door removed to reveal the interior composition</text>

  <!-- Back panel L-07 (visible through opening) -->
  <polygon points="313,162 608,162 608,758 313,758" class="back" opacity="0.5"/>
  <text x="440" y="460" class="lbl">L-07</text>

  <!-- Right side panel L-01 -->
  <polygon points="510,220 610,160 610,760 510,820" class="face-side"/>
  <text x="548" y="500" class="lbl" transform="rotate(-15 548,500)">L-01</text>

  <!-- Top panel L-02 -->
  <polygon points="215,225 505,225 605,165 315,165" class="face-top"/>
  <polygon points="210,220 510,220 510,225 210,225" class="panel-edge"/>
  <polygon points="505,225 510,220 610,160 605,165" class="panel-edge"/>
  <text x="380" y="198" class="lbl">L-02</text>

  <!-- Left side panel L-01 (front face strip + top edge) -->
  <polygon points="210,220 215,220 215,820 210,820" class="face-front"/>
  <polygon points="210,220 215,220 315,160 310,160" class="face-top" opacity="0.8"/>
  <text x="204" y="530" class="lbl" transform="rotate(-90 204,530)">L-01 side</text>

  <!-- Bottom panel L-03 (front edge) -->
  <polygon points="215,815 505,815 505,820 215,820" class="panel-edge"/>
  <text x="328" y="812" class="lbl">L-03</text>

  <!-- Fixed shelf L-04 at mid-height (y≈518) -->
  <polygon points="215,518 505,518 602,460 312,460" class="shelf" opacity="0.7"/>
  <polygon points="215,518 505,518 505,523 215,523" class="panel-edge"/>
  <text x="338" y="500" class="lbl">L-04 fixed</text>

  <!-- Adjustable shelves L-05 (dashed, 2 above + 2 below fixed) -->
  <line x1="215" y1="340" x2="505" y2="340" class="shelf-adj"/>
  <line x1="505" y1="340" x2="600" y2="283" class="shelf-adj"/>
  <text x="508" y="337" class="dim">L-05</text>
  <line x1="215" y1="420" x2="505" y2="420" class="shelf-adj"/>
  <line x1="505" y1="420" x2="600" y2="363" class="shelf-adj"/>
  <text x="508" y="417" class="dim">L-05</text>
  <line x1="215" y1="620" x2="505" y2="620" class="shelf-adj"/>
  <line x1="505" y1="620" x2="600" y2="563" class="shelf-adj"/>
  <text x="508" y="617" class="dim">L-05</text>
  <line x1="215" y1="720" x2="505" y2="720" class="shelf-adj"/>
  <line x1="505" y1="720" x2="600" y2="663" class="shelf-adj"/>
  <text x="508" y="717" class="dim">L-05</text>

  <!-- Left door L-06 (in place, semi-transparent) -->
  <rect x="211" y="221" width="149" height="598" class="door" opacity="0.4"/>
  <text x="262" y="524" class="lbl" style="fill:#991b1b">L-06</text>

  <!-- Carcass outline -->
  <line x1="210" y1="220" x2="510" y2="220" stroke="#0f172a" stroke-width="2"/>
  <line x1="210" y1="820" x2="510" y2="820" stroke="#0f172a" stroke-width="2"/>
  <line x1="210" y1="220" x2="210" y2="820" stroke="#0f172a" stroke-width="2"/>
  <line x1="510" y1="220" x2="510" y2="820" stroke="#0f172a" stroke-width="2"/>
  <line x1="210" y1="220" x2="310" y2="160" stroke="#0f172a" stroke-width="2"/>
  <line x1="510" y1="220" x2="610" y2="160" stroke="#0f172a" stroke-width="2"/>
  <line x1="310" y1="160" x2="610" y2="160" stroke="#0f172a" stroke-width="2"/>

  <!-- Dimension lines -->
  <line x1="180" y1="220" x2="180" y2="820" class="dimline"/>
  <line x1="172" y1="220" x2="188" y2="220" class="dimtick"/>
  <line x1="172" y1="820" x2="188" y2="820" class="dimtick"/>
  <text x="158" y="530" class="dim" transform="rotate(-90 158,530)">2000</text>
  <line x1="210" y1="846" x2="510" y2="846" class="dimline"/>
  <line x1="210" y1="838" x2="210" y2="854" class="dimtick"/>
  <line x1="510" y1="838" x2="510" y2="854" class="dimtick"/>
  <text x="338" y="868" class="dim">1000</text>
  <line x1="528" y1="832" x2="628" y2="772" class="dimline"/>
  <line x1="520" y1="838" x2="536" y2="826" class="dimtick"/>
  <line x1="620" y1="778" x2="636" y2="766" class="dimtick"/>
  <text x="640" y="782" class="dim">600</text>

  <!-- Legend -->
  <g transform="translate(720,160)">
    <text x="0" y="0" class="sub">Parts Key</text>
    <rect x="0" y="14" width="340" height="290" class="card" rx="4"/>
    <text x="16" y="42" class="txt">L-01 × 2 — Sides 2000 × 600 × 17</text>
    <text x="16" y="64" class="txt">L-02 × 1 — Top 966 × 600 × 17</text>
    <text x="16" y="86" class="txt">L-03 × 1 — Bottom 966 × 600 × 17</text>
    <text x="16" y="108" class="txt">L-04 × 1 — Fixed shelf 966 × 580 × 17</text>
    <text x="16" y="130" class="txt">L-05 × 4 — Adj. shelf 964 × 580 × 17</text>
    <text x="16" y="152" class="txt">L-06 × 2 — Door 1994 × 496 × 17</text>
    <text x="16" y="174" class="txt">L-07 × 1 — Back 1980 × 980 × 4</text>
    <line x1="16" y1="190" x2="320" y2="190" stroke="#e2e8f0" stroke-width="1"/>
    <rect x="16" y="206" width="16" height="12" class="face-front" stroke-width="1"/>
    <text x="40" y="216" class="txt">Carcass (17 mm sandwich plywood)</text>
    <rect x="16" y="228" width="16" height="12" class="door" opacity="0.4" stroke-width="1"/>
    <text x="40" y="238" class="txt">Door (semi-transparent)</text>
    <rect x="16" y="250" width="16" height="12" class="back" opacity="0.5" stroke-width="1"/>
    <text x="40" y="260" class="txt">Back panel (4 mm)</text>
    <line x1="16" y1="278" x2="32" y2="278" class="shelf-adj"/>
    <text x="40" y="282" class="txt">Adjustable shelf position</text>
  </g>

  <text x="40" y="920" class="txt">All dimensions in mm. Right door removed to show interior. Shelves set back 20 mm from front edge.</text>

  <!-- Catalog edition footer -->
  <rect x="24" y="932" width="1052" height="14" rx="3" fill="#8e6940" opacity="0.12" />
  <text x="550" y="943" text-anchor="middle" class="eyebrow"
    style="font-size:8px; letter-spacing:2.5px;">CATALOG EDITION APRIL 2026 · PLAN A ·
    RAJWANYAIR/WOODWORKINGSHOP</text>
</svg>
