<svg xmlns="http://www.w3.org/2000/svg" width="698" height="179" viewBox="0 0 698 179">
<style>text{font-family:system-ui,-apple-system,'Segoe UI',Roboto,Helvetica,Arial,sans-serif}</style>
<text x="349" y="22.0" text-anchor="middle" font-size="15" font-weight="700" fill="#5a4218">Consumables</text>
<rect x="1" y="33" width="696" height="29" fill="#5a4218" rx="4"/>
<rect x="1" y="58" width="696" height="4" fill="#5a4218"/>
<text x="185" y="52.0" text-anchor="middle" font-size="13" font-weight="700" fill="#ffffff">Item</text>
<text x="411" y="52.0" text-anchor="middle" font-size="13" font-weight="700" fill="#ffffff">Qty</text>
<text x="576" y="52.0" text-anchor="middle" font-size="13" font-weight="700" fill="#ffffff">Notes</text>
<rect x="1" y="62" width="696" height="29" fill="#ffffff"/>
<line x1="1" y1="91" x2="697" y2="91" stroke="#d4c4a0" stroke-width="0.5"/>
<text x="13" y="81.0" font-size="13" font-weight="400" fill="#2d2d2d">PVC edge banding, 22 mm wide, 0.5–1 mm thick</text>
<text x="380" y="81.0" font-size="13" font-weight="400" fill="#2d2d2d">30 m</text>
<line x1="368" y1="62" x2="368" y2="91" stroke="#d4c4a0" stroke-width="0.5"/>
<text x="467" y="81.0" font-size="13" font-weight="400" fill="#2d2d2d">≈ 27.3 m needed + 10 % waste</text>
<line x1="455" y1="62" x2="455" y2="91" stroke="#d4c4a0" stroke-width="0.5"/>
<rect x="1" y="91" width="696" height="29" fill="#f8f4ee"/>
<line x1="1" y1="120" x2="697" y2="120" stroke="#d4c4a0" stroke-width="0.5"/>
<text x="13" y="110.0" font-size="13" font-weight="400" fill="#2d2d2d">Wood glue (PVA)</text>
<text x="380" y="110.0" font-size="13" font-weight="400" fill="#2d2d2d">250 ml</text>
<line x1="368" y1="91" x2="368" y2="120" stroke="#d4c4a0" stroke-width="0.5"/>
<text x="467" y="110.0" font-size="13" font-weight="400" fill="#2d2d2d">Optional for edge joints</text>
<line x1="455" y1="91" x2="455" y2="120" stroke="#d4c4a0" stroke-width="0.5"/>
<rect x="1" y="120" width="696" height="29" fill="#ffffff"/>
<line x1="1" y1="149" x2="697" y2="149" stroke="#d4c4a0" stroke-width="0.5"/>
<text x="13" y="139.1" font-size="13" font-weight="400" fill="#2d2d2d">120-grit sandpaper</text>
<text x="380" y="139.1" font-size="13" font-weight="400" fill="#2d2d2d">3 sheets</text>
<line x1="368" y1="120" x2="368" y2="149" stroke="#d4c4a0" stroke-width="0.5"/>
<text x="467" y="139.1" font-size="13" font-weight="400" fill="#2d2d2d">Edge-band flush trimming</text>
<line x1="455" y1="120" x2="455" y2="149" stroke="#d4c4a0" stroke-width="0.5"/>
<rect x="1" y="149" width="696" height="29" fill="#f8f4ee"/>
<text x="13" y="168.1" font-size="13" font-weight="400" fill="#2d2d2d">220-grit sandpaper</text>
<text x="380" y="168.1" font-size="13" font-weight="400" fill="#2d2d2d">3 sheets</text>
<line x1="368" y1="149" x2="368" y2="178" stroke="#d4c4a0" stroke-width="0.5"/>
<text x="467" y="168.1" font-size="13" font-weight="400" fill="#2d2d2d">Final smoothing</text>
<line x1="455" y1="149" x2="455" y2="178" stroke="#d4c4a0" stroke-width="0.5"/>
<rect x="1" y="33" width="696" height="145" fill="none" stroke="#d4c4a0" stroke-width="1" rx="4"/>
</svg>