<svg xmlns="http://www.w3.org/2000/svg" width="535" height="205" viewBox="0 0 535 205">
<style>text{font-family:system-ui,-apple-system,'Segoe UI',Roboto,Helvetica,Arial,sans-serif}</style>
<rect x="1" y="1" width="533" height="29" fill="#5a4218" rx="4"/>
<rect x="1" y="26" width="533" height="4" fill="#5a4218"/>
<text x="79" y="20.1" text-anchor="middle" font-size="13" font-weight="700" fill="#ffffff">Part</text>
<text x="205" y="20.1" text-anchor="middle" font-size="13" font-weight="700" fill="#ffffff">Size</text>
<text x="330" y="20.1" text-anchor="middle" font-size="13" font-weight="700" fill="#ffffff">Orientation</text>
<text x="471" y="20.1" text-anchor="middle" font-size="13" font-weight="700" fill="#ffffff">Position</text>
<rect x="1" y="30" width="533" height="29" fill="#ffffff"/>
<line x1="1" y1="59" x2="534" y2="59" stroke="#d4c4a0" stroke-width="0.5"/>
<text x="13" y="49.0" font-size="13" font-weight="400" fill="#2d2d2d">L-02 top panel</text>
<text x="170" y="49.0" font-size="13" font-weight="400" fill="#2d2d2d">966 × 600</text>
<line x1="158" y1="30" x2="158" y2="59" stroke="#d4c4a0" stroke-width="0.5"/>
<text x="264" y="49.0" font-size="13" font-weight="400" fill="#2d2d2d">Length along 2440</text>
<line x1="252" y1="30" x2="252" y2="59" stroke="#d4c4a0" stroke-width="0.5"/>
<text x="420" y="49.0" font-size="13" font-weight="400" fill="#2d2d2d">Row A, left</text>
<line x1="408" y1="30" x2="408" y2="59" stroke="#d4c4a0" stroke-width="0.5"/>
<rect x="1" y="59" width="533" height="29" fill="#f8f4ee"/>
<line x1="1" y1="88" x2="534" y2="88" stroke="#d4c4a0" stroke-width="0.5"/>
<text x="13" y="78.0" font-size="13" font-weight="400" fill="#2d2d2d">S-01 side panel</text>
<text x="170" y="78.0" font-size="13" font-weight="400" fill="#2d2d2d">480 × 600</text>
<line x1="158" y1="59" x2="158" y2="88" stroke="#d4c4a0" stroke-width="0.5"/>
<text x="264" y="78.0" font-size="13" font-weight="400" fill="#2d2d2d">Length along 2440</text>
<line x1="252" y1="59" x2="252" y2="88" stroke="#d4c4a0" stroke-width="0.5"/>
<text x="420" y="78.0" font-size="13" font-weight="400" fill="#2d2d2d">Row A, center</text>
<line x1="408" y1="59" x2="408" y2="88" stroke="#d4c4a0" stroke-width="0.5"/>
<rect x="1" y="88" width="533" height="29" fill="#ffffff"/>
<line x1="1" y1="117" x2="534" y2="117" stroke="#d4c4a0" stroke-width="0.5"/>
<text x="13" y="107.0" font-size="13" font-weight="400" fill="#2d2d2d">S-02 top panel</text>
<text x="170" y="107.0" font-size="13" font-weight="400" fill="#2d2d2d">746 × 600</text>
<line x1="158" y1="88" x2="158" y2="117" stroke="#d4c4a0" stroke-width="0.5"/>
<text x="264" y="107.0" font-size="13" font-weight="400" fill="#2d2d2d">Length along 2440</text>
<line x1="252" y1="88" x2="252" y2="117" stroke="#d4c4a0" stroke-width="0.5"/>
<text x="420" y="107.0" font-size="13" font-weight="400" fill="#2d2d2d">Row A, right</text>
<line x1="408" y1="88" x2="408" y2="117" stroke="#d4c4a0" stroke-width="0.5"/>
<rect x="1" y="117" width="533" height="29" fill="#f8f4ee"/>
<line x1="1" y1="146" x2="534" y2="146" stroke="#d4c4a0" stroke-width="0.5"/>
<text x="13" y="136.1" font-size="13" font-weight="400" fill="#2d2d2d">L-03 bottom panel</text>
<text x="170" y="136.1" font-size="13" font-weight="400" fill="#2d2d2d">966 × 600</text>
<line x1="158" y1="117" x2="158" y2="146" stroke="#d4c4a0" stroke-width="0.5"/>
<text x="264" y="136.1" font-size="13" font-weight="400" fill="#2d2d2d">Length along 2440</text>
<line x1="252" y1="117" x2="252" y2="146" stroke="#d4c4a0" stroke-width="0.5"/>
<text x="420" y="136.1" font-size="13" font-weight="400" fill="#2d2d2d">Row B, left</text>
<line x1="408" y1="117" x2="408" y2="146" stroke="#d4c4a0" stroke-width="0.5"/>
<rect x="1" y="146" width="533" height="29" fill="#ffffff"/>
<line x1="1" y1="175" x2="534" y2="175" stroke="#d4c4a0" stroke-width="0.5"/>
<text x="13" y="165.1" font-size="13" font-weight="400" fill="#2d2d2d">S-01 side panel</text>
<text x="170" y="165.1" font-size="13" font-weight="400" fill="#2d2d2d">480 × 600</text>
<line x1="158" y1="146" x2="158" y2="175" stroke="#d4c4a0" stroke-width="0.5"/>
<text x="264" y="165.1" font-size="13" font-weight="400" fill="#2d2d2d">Length along 2440</text>
<line x1="252" y1="146" x2="252" y2="175" stroke="#d4c4a0" stroke-width="0.5"/>
<text x="420" y="165.1" font-size="13" font-weight="400" fill="#2d2d2d">Row B, center</text>
<line x1="408" y1="146" x2="408" y2="175" stroke="#d4c4a0" stroke-width="0.5"/>
<rect x="1" y="175" width="533" height="29" fill="#f8f4ee"/>
<text x="13" y="194.1" font-size="13" font-weight="400" fill="#2d2d2d">S-03 bottom panel</text>
<text x="170" y="194.1" font-size="13" font-weight="400" fill="#2d2d2d">746 × 600</text>
<line x1="158" y1="175" x2="158" y2="204" stroke="#d4c4a0" stroke-width="0.5"/>
<text x="264" y="194.1" font-size="13" font-weight="400" fill="#2d2d2d">Length along 2440</text>
<line x1="252" y1="175" x2="252" y2="204" stroke="#d4c4a0" stroke-width="0.5"/>
<text x="420" y="194.1" font-size="13" font-weight="400" fill="#2d2d2d">Row B, right</text>
<line x1="408" y1="175" x2="408" y2="204" stroke="#d4c4a0" stroke-width="0.5"/>
<rect x="1" y="1" width="533" height="203" fill="none" stroke="#d4c4a0" stroke-width="1" rx="4"/>
</svg>