<svg xmlns="http://www.w3.org/2000/svg" width="808" height="147" viewBox="0 0 808 147">
<style>text{font-family:system-ui,-apple-system,'Segoe UI',Roboto,Helvetica,Arial,sans-serif}</style>
<rect x="1" y="1" width="806" height="29" fill="#5a4218" rx="4"/>
<rect x="1" y="26" width="806" height="4" fill="#5a4218"/>
<text x="83" y="20.1" text-anchor="middle" font-size="13" font-weight="700" fill="#ffffff">Part</text>
<text x="216" y="20.1" text-anchor="middle" font-size="13" font-weight="700" fill="#ffffff">Size</text>
<text x="369" y="20.1" text-anchor="middle" font-size="13" font-weight="700" fill="#ffffff">Orientation</text>
<text x="639" y="20.1" text-anchor="middle" font-size="13" font-weight="700" fill="#ffffff">Position</text>
<rect x="1" y="30" width="806" height="29" fill="#ffffff"/>
<line x1="1" y1="59" x2="807" y2="59" stroke="#d4c4a0" stroke-width="0.5"/>
<text x="13" y="49.0" font-size="13" font-weight="400" fill="#2d2d2d">L-01 side panel ×1</text>
<text x="177" y="49.0" font-size="13" font-weight="400" fill="#2d2d2d">2000 × 600</text>
<line x1="165" y1="30" x2="165" y2="59" stroke="#d4c4a0" stroke-width="0.5"/>
<text x="279" y="49.0" font-size="13" font-weight="400" fill="#2d2d2d">Length along 2440</text>
<line x1="267" y1="30" x2="267" y2="59" stroke="#d4c4a0" stroke-width="0.5"/>
<text x="483" y="49.0" font-size="13" font-weight="400" fill="#2d2d2d">First 600 mm strip</text>
<line x1="471" y1="30" x2="471" y2="59" stroke="#d4c4a0" stroke-width="0.5"/>
<rect x="1" y="59" width="806" height="29" fill="#f8f4ee"/>
<line x1="1" y1="88" x2="807" y2="88" stroke="#d4c4a0" stroke-width="0.5"/>
<text x="13" y="78.0" font-size="13" font-weight="400" fill="#2d2d2d">L-01 side panel ×1</text>
<text x="177" y="78.0" font-size="13" font-weight="400" fill="#2d2d2d">2000 × 600</text>
<line x1="165" y1="59" x2="165" y2="88" stroke="#d4c4a0" stroke-width="0.5"/>
<text x="279" y="78.0" font-size="13" font-weight="400" fill="#2d2d2d">Length along 2440</text>
<line x1="267" y1="59" x2="267" y2="88" stroke="#d4c4a0" stroke-width="0.5"/>
<text x="483" y="78.0" font-size="13" font-weight="400" fill="#2d2d2d">Second 600 mm strip (4 mm kerf between)</text>
<line x1="471" y1="59" x2="471" y2="88" stroke="#d4c4a0" stroke-width="0.5"/>
<rect x="1" y="88" width="806" height="29" fill="#ffffff"/>
<line x1="1" y1="117" x2="807" y2="117" stroke="#d4c4a0" stroke-width="0.5"/>
<text x="13" y="107.0" font-size="13" font-weight="400" fill="#2d2d2d">S-05 door ×1</text>
<text x="177" y="107.0" font-size="13" font-weight="400" fill="#2d2d2d">474 × 386</text>
<line x1="165" y1="88" x2="165" y2="117" stroke="#d4c4a0" stroke-width="0.5"/>
<text x="279" y="107.0" font-size="13" font-weight="400" fill="#2d2d2d">Rotated: 386 along 2440</text>
<line x1="267" y1="88" x2="267" y2="117" stroke="#d4c4a0" stroke-width="0.5"/>
<text x="483" y="107.0" font-size="13" font-weight="400" fill="#2d2d2d">Offcut zone (440 × 1220), first position</text>
<line x1="471" y1="88" x2="471" y2="117" stroke="#d4c4a0" stroke-width="0.5"/>
<rect x="1" y="117" width="806" height="29" fill="#f8f4ee"/>
<text x="13" y="136.1" font-size="13" font-weight="400" fill="#2d2d2d">S-05 door ×1</text>
<text x="177" y="136.1" font-size="13" font-weight="400" fill="#2d2d2d">474 × 386</text>
<line x1="165" y1="117" x2="165" y2="146" stroke="#d4c4a0" stroke-width="0.5"/>
<text x="279" y="136.1" font-size="13" font-weight="400" fill="#2d2d2d">Rotated: 386 along 2440</text>
<line x1="267" y1="117" x2="267" y2="146" stroke="#d4c4a0" stroke-width="0.5"/>
<text x="483" y="136.1" font-size="13" font-weight="400" fill="#2d2d2d">Offcut zone, second position</text>
<line x1="471" y1="117" x2="471" y2="146" stroke="#d4c4a0" stroke-width="0.5"/>
<rect x="1" y="1" width="806" height="145" fill="none" stroke="#d4c4a0" stroke-width="1" rx="4"/>
</svg>