<svg xmlns="http://www.w3.org/2000/svg" width="550" height="89" viewBox="0 0 550 89">
<style>text{font-family:system-ui,-apple-system,'Segoe UI',Roboto,Helvetica,Arial,sans-serif}</style>
<rect x="1" y="1" width="548" height="29" fill="#5a4218" rx="4"/>
<rect x="1" y="26" width="548" height="4" fill="#5a4218"/>
<text x="60" y="20.1" text-anchor="middle" font-size="13" font-weight="700" fill="#ffffff">Part</text>
<text x="170" y="20.1" text-anchor="middle" font-size="13" font-weight="700" fill="#ffffff">Size</text>
<text x="299" y="20.1" text-anchor="middle" font-size="13" font-weight="700" fill="#ffffff">Orientation</text>
<text x="463" y="20.1" text-anchor="middle" font-size="13" font-weight="700" fill="#ffffff">Position</text>
<rect x="1" y="30" width="548" height="29" fill="#ffffff"/>
<line x1="1" y1="59" x2="549" y2="59" stroke="#d4c4a0" stroke-width="0.5"/>
<text x="13" y="49.0" font-size="13" font-weight="400" fill="#2d2d2d">L-06 door ×1</text>
<text x="131" y="49.0" font-size="13" font-weight="400" fill="#2d2d2d">1994 × 496</text>
<line x1="119" y1="30" x2="119" y2="59" stroke="#d4c4a0" stroke-width="0.5"/>
<text x="233" y="49.0" font-size="13" font-weight="400" fill="#2d2d2d">Length along 2440</text>
<line x1="221" y1="30" x2="221" y2="59" stroke="#d4c4a0" stroke-width="0.5"/>
<text x="389" y="49.0" font-size="13" font-weight="400" fill="#2d2d2d">First 496 mm strip</text>
<line x1="377" y1="30" x2="377" y2="59" stroke="#d4c4a0" stroke-width="0.5"/>
<rect x="1" y="59" width="548" height="29" fill="#f8f4ee"/>
<text x="13" y="78.0" font-size="13" font-weight="400" fill="#2d2d2d">L-06 door ×1</text>
<text x="131" y="78.0" font-size="13" font-weight="400" fill="#2d2d2d">1994 × 496</text>
<line x1="119" y1="59" x2="119" y2="88" stroke="#d4c4a0" stroke-width="0.5"/>
<text x="233" y="78.0" font-size="13" font-weight="400" fill="#2d2d2d">Length along 2440</text>
<line x1="221" y1="59" x2="221" y2="88" stroke="#d4c4a0" stroke-width="0.5"/>
<text x="389" y="78.0" font-size="13" font-weight="400" fill="#2d2d2d">Second 496 mm strip</text>
<line x1="377" y1="59" x2="377" y2="88" stroke="#d4c4a0" stroke-width="0.5"/>
<rect x="1" y="1" width="548" height="87" fill="none" stroke="#d4c4a0" stroke-width="1" rx="4"/>
</svg>