<svg xmlns="http://www.w3.org/2000/svg" width="765" height="469" viewBox="0 0 765 469">
<style>text{font-family:system-ui,-apple-system,'Segoe UI',Roboto,Helvetica,Arial,sans-serif}</style>
<text x="382" y="22.0" text-anchor="middle" font-size="15" font-weight="700" fill="#5a4218">Combined Cut List (both cabinets, 20 parts total)</text>
<rect x="1" y="33" width="763" height="29" fill="#5a4218" rx="4"/>
<rect x="1" y="58" width="763" height="4" fill="#5a4218"/>
<text x="31" y="52.0" text-anchor="middle" font-size="13" font-weight="700" fill="#ffffff">ID</text>
<text x="120" y="52.0" text-anchor="middle" font-size="13" font-weight="700" fill="#ffffff">Part</text>
<text x="209" y="52.0" text-anchor="middle" font-size="13" font-weight="700" fill="#ffffff">Qty</text>
<text x="270" y="52.0" text-anchor="middle" font-size="13" font-weight="700" fill="#ffffff">Thick</text>
<text x="368" y="52.0" text-anchor="middle" font-size="13" font-weight="700" fill="#ffffff">Length × Width</text>
<text x="525" y="52.0" text-anchor="middle" font-size="13" font-weight="700" fill="#ffffff">Area per piece (mm²)</text>
<text x="689" y="52.0" text-anchor="middle" font-size="13" font-weight="700" fill="#ffffff">Total area (mm²)</text>
<rect x="1" y="62" width="763" height="29" fill="#ffffff"/>
<line x1="1" y1="91" x2="764" y2="91" stroke="#d4c4a0" stroke-width="0.5"/>
<text x="13" y="81.0" font-size="13" font-weight="400" fill="#2d2d2d">L-01</text>
<text x="73" y="81.0" font-size="13" font-weight="400" fill="#2d2d2d">Side panel</text>
<line x1="61" y1="62" x2="61" y2="91" stroke="#d4c4a0" stroke-width="0.5"/>
<text x="191" y="81.0" font-size="13" font-weight="400" fill="#2d2d2d">2</text>
<line x1="179" y1="62" x2="179" y2="91" stroke="#d4c4a0" stroke-width="0.5"/>
<text x="251" y="81.0" font-size="13" font-weight="400" fill="#2d2d2d">17</text>
<line x1="239" y1="62" x2="239" y2="91" stroke="#d4c4a0" stroke-width="0.5"/>
<text x="314" y="81.0" font-size="13" font-weight="400" fill="#2d2d2d">2000 × 600</text>
<line x1="302" y1="62" x2="302" y2="91" stroke="#d4c4a0" stroke-width="0.5"/>
<text x="447" y="81.0" font-size="13" font-weight="400" fill="#2d2d2d">1 200 000</text>
<line x1="435" y1="62" x2="435" y2="91" stroke="#d4c4a0" stroke-width="0.5"/>
<text x="627" y="81.0" font-size="13" font-weight="400" fill="#2d2d2d">2 400 000</text>
<line x1="615" y1="62" x2="615" y2="91" stroke="#d4c4a0" stroke-width="0.5"/>
<rect x="1" y="91" width="763" height="29" fill="#f8f4ee"/>
<line x1="1" y1="120" x2="764" y2="120" stroke="#d4c4a0" stroke-width="0.5"/>
<text x="13" y="110.0" font-size="13" font-weight="400" fill="#2d2d2d">L-02</text>
<text x="73" y="110.0" font-size="13" font-weight="400" fill="#2d2d2d">Top panel</text>
<line x1="61" y1="91" x2="61" y2="120" stroke="#d4c4a0" stroke-width="0.5"/>
<text x="191" y="110.0" font-size="13" font-weight="400" fill="#2d2d2d">1</text>
<line x1="179" y1="91" x2="179" y2="120" stroke="#d4c4a0" stroke-width="0.5"/>
<text x="251" y="110.0" font-size="13" font-weight="400" fill="#2d2d2d">17</text>
<line x1="239" y1="91" x2="239" y2="120" stroke="#d4c4a0" stroke-width="0.5"/>
<text x="314" y="110.0" font-size="13" font-weight="400" fill="#2d2d2d">966 × 600</text>
<line x1="302" y1="91" x2="302" y2="120" stroke="#d4c4a0" stroke-width="0.5"/>
<text x="447" y="110.0" font-size="13" font-weight="400" fill="#2d2d2d">579 600</text>
<line x1="435" y1="91" x2="435" y2="120" stroke="#d4c4a0" stroke-width="0.5"/>
<text x="627" y="110.0" font-size="13" font-weight="400" fill="#2d2d2d">579 600</text>
<line x1="615" y1="91" x2="615" y2="120" stroke="#d4c4a0" stroke-width="0.5"/>
<rect x="1" y="120" width="763" height="29" fill="#ffffff"/>
<line x1="1" y1="149" x2="764" y2="149" stroke="#d4c4a0" stroke-width="0.5"/>
<text x="13" y="139.1" font-size="13" font-weight="400" fill="#2d2d2d">L-03</text>
<text x="73" y="139.1" font-size="13" font-weight="400" fill="#2d2d2d">Bottom panel</text>
<line x1="61" y1="120" x2="61" y2="149" stroke="#d4c4a0" stroke-width="0.5"/>
<text x="191" y="139.1" font-size="13" font-weight="400" fill="#2d2d2d">1</text>
<line x1="179" y1="120" x2="179" y2="149" stroke="#d4c4a0" stroke-width="0.5"/>
<text x="251" y="139.1" font-size="13" font-weight="400" fill="#2d2d2d">17</text>
<line x1="239" y1="120" x2="239" y2="149" stroke="#d4c4a0" stroke-width="0.5"/>
<text x="314" y="139.1" font-size="13" font-weight="400" fill="#2d2d2d">966 × 600</text>
<line x1="302" y1="120" x2="302" y2="149" stroke="#d4c4a0" stroke-width="0.5"/>
<text x="447" y="139.1" font-size="13" font-weight="400" fill="#2d2d2d">579 600</text>
<line x1="435" y1="120" x2="435" y2="149" stroke="#d4c4a0" stroke-width="0.5"/>
<text x="627" y="139.1" font-size="13" font-weight="400" fill="#2d2d2d">579 600</text>
<line x1="615" y1="120" x2="615" y2="149" stroke="#d4c4a0" stroke-width="0.5"/>
<rect x="1" y="149" width="763" height="29" fill="#f8f4ee"/>
<line x1="1" y1="178" x2="764" y2="178" stroke="#d4c4a0" stroke-width="0.5"/>
<text x="13" y="168.1" font-size="13" font-weight="400" fill="#2d2d2d">L-04</text>
<text x="73" y="168.1" font-size="13" font-weight="400" fill="#2d2d2d">Fixed shelf</text>
<line x1="61" y1="149" x2="61" y2="178" stroke="#d4c4a0" stroke-width="0.5"/>
<text x="191" y="168.1" font-size="13" font-weight="400" fill="#2d2d2d">1</text>
<line x1="179" y1="149" x2="179" y2="178" stroke="#d4c4a0" stroke-width="0.5"/>
<text x="251" y="168.1" font-size="13" font-weight="400" fill="#2d2d2d">17</text>
<line x1="239" y1="149" x2="239" y2="178" stroke="#d4c4a0" stroke-width="0.5"/>
<text x="314" y="168.1" font-size="13" font-weight="400" fill="#2d2d2d">966 × 580</text>
<line x1="302" y1="149" x2="302" y2="178" stroke="#d4c4a0" stroke-width="0.5"/>
<text x="447" y="168.1" font-size="13" font-weight="400" fill="#2d2d2d">560 280</text>
<line x1="435" y1="149" x2="435" y2="178" stroke="#d4c4a0" stroke-width="0.5"/>
<text x="627" y="168.1" font-size="13" font-weight="400" fill="#2d2d2d">560 280</text>
<line x1="615" y1="149" x2="615" y2="178" stroke="#d4c4a0" stroke-width="0.5"/>
<rect x="1" y="178" width="763" height="29" fill="#ffffff"/>
<line x1="1" y1="207" x2="764" y2="207" stroke="#d4c4a0" stroke-width="0.5"/>
<text x="13" y="197.1" font-size="13" font-weight="400" fill="#2d2d2d">L-05</text>
<text x="73" y="197.1" font-size="13" font-weight="400" fill="#2d2d2d">Adj. shelf</text>
<line x1="61" y1="178" x2="61" y2="207" stroke="#d4c4a0" stroke-width="0.5"/>
<text x="191" y="197.1" font-size="13" font-weight="400" fill="#2d2d2d">4</text>
<line x1="179" y1="178" x2="179" y2="207" stroke="#d4c4a0" stroke-width="0.5"/>
<text x="251" y="197.1" font-size="13" font-weight="400" fill="#2d2d2d">17</text>
<line x1="239" y1="178" x2="239" y2="207" stroke="#d4c4a0" stroke-width="0.5"/>
<text x="314" y="197.1" font-size="13" font-weight="400" fill="#2d2d2d">964 × 580</text>
<line x1="302" y1="178" x2="302" y2="207" stroke="#d4c4a0" stroke-width="0.5"/>
<text x="447" y="197.1" font-size="13" font-weight="400" fill="#2d2d2d">559 120</text>
<line x1="435" y1="178" x2="435" y2="207" stroke="#d4c4a0" stroke-width="0.5"/>
<text x="627" y="197.1" font-size="13" font-weight="400" fill="#2d2d2d">2 236 480</text>
<line x1="615" y1="178" x2="615" y2="207" stroke="#d4c4a0" stroke-width="0.5"/>
<rect x="1" y="207" width="763" height="29" fill="#f8f4ee"/>
<line x1="1" y1="236" x2="764" y2="236" stroke="#d4c4a0" stroke-width="0.5"/>
<text x="13" y="226.1" font-size="13" font-weight="400" fill="#2d2d2d">L-06</text>
<text x="73" y="226.1" font-size="13" font-weight="400" fill="#2d2d2d">Door</text>
<line x1="61" y1="207" x2="61" y2="236" stroke="#d4c4a0" stroke-width="0.5"/>
<text x="191" y="226.1" font-size="13" font-weight="400" fill="#2d2d2d">2</text>
<line x1="179" y1="207" x2="179" y2="236" stroke="#d4c4a0" stroke-width="0.5"/>
<text x="251" y="226.1" font-size="13" font-weight="400" fill="#2d2d2d">17</text>
<line x1="239" y1="207" x2="239" y2="236" stroke="#d4c4a0" stroke-width="0.5"/>
<text x="314" y="226.1" font-size="13" font-weight="400" fill="#2d2d2d">1994 × 496</text>
<line x1="302" y1="207" x2="302" y2="236" stroke="#d4c4a0" stroke-width="0.5"/>
<text x="447" y="226.1" font-size="13" font-weight="400" fill="#2d2d2d">989 024</text>
<line x1="435" y1="207" x2="435" y2="236" stroke="#d4c4a0" stroke-width="0.5"/>
<text x="627" y="226.1" font-size="13" font-weight="400" fill="#2d2d2d">1 978 048</text>
<line x1="615" y1="207" x2="615" y2="236" stroke="#d4c4a0" stroke-width="0.5"/>
<rect x="1" y="236" width="763" height="29" fill="#ffffff"/>
<line x1="1" y1="265" x2="764" y2="265" stroke="#d4c4a0" stroke-width="0.5"/>
<text x="13" y="255.1" font-size="13" font-weight="400" fill="#2d2d2d">L-07</text>
<text x="73" y="255.1" font-size="13" font-weight="400" fill="#2d2d2d">Back panel</text>
<line x1="61" y1="236" x2="61" y2="265" stroke="#d4c4a0" stroke-width="0.5"/>
<text x="191" y="255.1" font-size="13" font-weight="400" fill="#2d2d2d">1</text>
<line x1="179" y1="236" x2="179" y2="265" stroke="#d4c4a0" stroke-width="0.5"/>
<text x="251" y="255.1" font-size="13" font-weight="400" fill="#2d2d2d">4</text>
<line x1="239" y1="236" x2="239" y2="265" stroke="#d4c4a0" stroke-width="0.5"/>
<text x="314" y="255.1" font-size="13" font-weight="400" fill="#2d2d2d">1980 × 980</text>
<line x1="302" y1="236" x2="302" y2="265" stroke="#d4c4a0" stroke-width="0.5"/>
<text x="447" y="255.1" font-size="13" font-weight="400" fill="#2d2d2d">1 940 400</text>
<line x1="435" y1="236" x2="435" y2="265" stroke="#d4c4a0" stroke-width="0.5"/>
<text x="627" y="255.1" font-size="13" font-weight="400" fill="#2d2d2d">1 940 400</text>
<line x1="615" y1="236" x2="615" y2="265" stroke="#d4c4a0" stroke-width="0.5"/>
<rect x="1" y="265" width="763" height="29" fill="#f8f4ee"/>
<line x1="1" y1="294" x2="764" y2="294" stroke="#d4c4a0" stroke-width="0.5"/>
<text x="13" y="284.1" font-size="13" font-weight="400" fill="#2d2d2d">S-01</text>
<text x="73" y="284.1" font-size="13" font-weight="400" fill="#2d2d2d">Side panel</text>
<line x1="61" y1="265" x2="61" y2="294" stroke="#d4c4a0" stroke-width="0.5"/>
<text x="191" y="284.1" font-size="13" font-weight="400" fill="#2d2d2d">2</text>
<line x1="179" y1="265" x2="179" y2="294" stroke="#d4c4a0" stroke-width="0.5"/>
<text x="251" y="284.1" font-size="13" font-weight="400" fill="#2d2d2d">17</text>
<line x1="239" y1="265" x2="239" y2="294" stroke="#d4c4a0" stroke-width="0.5"/>
<text x="314" y="284.1" font-size="13" font-weight="400" fill="#2d2d2d">480 × 600</text>
<line x1="302" y1="265" x2="302" y2="294" stroke="#d4c4a0" stroke-width="0.5"/>
<text x="447" y="284.1" font-size="13" font-weight="400" fill="#2d2d2d">288 000</text>
<line x1="435" y1="265" x2="435" y2="294" stroke="#d4c4a0" stroke-width="0.5"/>
<text x="627" y="284.1" font-size="13" font-weight="400" fill="#2d2d2d">576 000</text>
<line x1="615" y1="265" x2="615" y2="294" stroke="#d4c4a0" stroke-width="0.5"/>
<rect x="1" y="294" width="763" height="29" fill="#ffffff"/>
<line x1="1" y1="323" x2="764" y2="323" stroke="#d4c4a0" stroke-width="0.5"/>
<text x="13" y="313.1" font-size="13" font-weight="400" fill="#2d2d2d">S-02</text>
<text x="73" y="313.1" font-size="13" font-weight="400" fill="#2d2d2d">Top panel</text>
<line x1="61" y1="294" x2="61" y2="323" stroke="#d4c4a0" stroke-width="0.5"/>
<text x="191" y="313.1" font-size="13" font-weight="400" fill="#2d2d2d">1</text>
<line x1="179" y1="294" x2="179" y2="323" stroke="#d4c4a0" stroke-width="0.5"/>
<text x="251" y="313.1" font-size="13" font-weight="400" fill="#2d2d2d">17</text>
<line x1="239" y1="294" x2="239" y2="323" stroke="#d4c4a0" stroke-width="0.5"/>
<text x="314" y="313.1" font-size="13" font-weight="400" fill="#2d2d2d">746 × 600</text>
<line x1="302" y1="294" x2="302" y2="323" stroke="#d4c4a0" stroke-width="0.5"/>
<text x="447" y="313.1" font-size="13" font-weight="400" fill="#2d2d2d">447 600</text>
<line x1="435" y1="294" x2="435" y2="323" stroke="#d4c4a0" stroke-width="0.5"/>
<text x="627" y="313.1" font-size="13" font-weight="400" fill="#2d2d2d">447 600</text>
<line x1="615" y1="294" x2="615" y2="323" stroke="#d4c4a0" stroke-width="0.5"/>
<rect x="1" y="323" width="763" height="29" fill="#f8f4ee"/>
<line x1="1" y1="352" x2="764" y2="352" stroke="#d4c4a0" stroke-width="0.5"/>
<text x="13" y="342.1" font-size="13" font-weight="400" fill="#2d2d2d">S-03</text>
<text x="73" y="342.1" font-size="13" font-weight="400" fill="#2d2d2d">Bottom panel</text>
<line x1="61" y1="323" x2="61" y2="352" stroke="#d4c4a0" stroke-width="0.5"/>
<text x="191" y="342.1" font-size="13" font-weight="400" fill="#2d2d2d">1</text>
<line x1="179" y1="323" x2="179" y2="352" stroke="#d4c4a0" stroke-width="0.5"/>
<text x="251" y="342.1" font-size="13" font-weight="400" fill="#2d2d2d">17</text>
<line x1="239" y1="323" x2="239" y2="352" stroke="#d4c4a0" stroke-width="0.5"/>
<text x="314" y="342.1" font-size="13" font-weight="400" fill="#2d2d2d">746 × 600</text>
<line x1="302" y1="323" x2="302" y2="352" stroke="#d4c4a0" stroke-width="0.5"/>
<text x="447" y="342.1" font-size="13" font-weight="400" fill="#2d2d2d">447 600</text>
<line x1="435" y1="323" x2="435" y2="352" stroke="#d4c4a0" stroke-width="0.5"/>
<text x="627" y="342.1" font-size="13" font-weight="400" fill="#2d2d2d">447 600</text>
<line x1="615" y1="323" x2="615" y2="352" stroke="#d4c4a0" stroke-width="0.5"/>
<rect x="1" y="352" width="763" height="29" fill="#ffffff"/>
<line x1="1" y1="381" x2="764" y2="381" stroke="#d4c4a0" stroke-width="0.5"/>
<text x="13" y="371.1" font-size="13" font-weight="400" fill="#2d2d2d">S-04</text>
<text x="73" y="371.1" font-size="13" font-weight="400" fill="#2d2d2d">Fixed shelf</text>
<line x1="61" y1="352" x2="61" y2="381" stroke="#d4c4a0" stroke-width="0.5"/>
<text x="191" y="371.1" font-size="13" font-weight="400" fill="#2d2d2d">1</text>
<line x1="179" y1="352" x2="179" y2="381" stroke="#d4c4a0" stroke-width="0.5"/>
<text x="251" y="371.1" font-size="13" font-weight="400" fill="#2d2d2d">17</text>
<line x1="239" y1="352" x2="239" y2="381" stroke="#d4c4a0" stroke-width="0.5"/>
<text x="314" y="371.1" font-size="13" font-weight="400" fill="#2d2d2d">745 × 580</text>
<line x1="302" y1="352" x2="302" y2="381" stroke="#d4c4a0" stroke-width="0.5"/>
<text x="447" y="371.1" font-size="13" font-weight="400" fill="#2d2d2d">432 100</text>
<line x1="435" y1="352" x2="435" y2="381" stroke="#d4c4a0" stroke-width="0.5"/>
<text x="627" y="371.1" font-size="13" font-weight="400" fill="#2d2d2d">432 100</text>
<line x1="615" y1="352" x2="615" y2="381" stroke="#d4c4a0" stroke-width="0.5"/>
<rect x="1" y="381" width="763" height="29" fill="#f8f4ee"/>
<line x1="1" y1="410" x2="764" y2="410" stroke="#d4c4a0" stroke-width="0.5"/>
<text x="13" y="400.1" font-size="13" font-weight="400" fill="#2d2d2d">S-05</text>
<text x="73" y="400.1" font-size="13" font-weight="400" fill="#2d2d2d">Door</text>
<line x1="61" y1="381" x2="61" y2="410" stroke="#d4c4a0" stroke-width="0.5"/>
<text x="191" y="400.1" font-size="13" font-weight="400" fill="#2d2d2d">2</text>
<line x1="179" y1="381" x2="179" y2="410" stroke="#d4c4a0" stroke-width="0.5"/>
<text x="251" y="400.1" font-size="13" font-weight="400" fill="#2d2d2d">17</text>
<line x1="239" y1="381" x2="239" y2="410" stroke="#d4c4a0" stroke-width="0.5"/>
<text x="314" y="400.1" font-size="13" font-weight="400" fill="#2d2d2d">474 × 386</text>
<line x1="302" y1="381" x2="302" y2="410" stroke="#d4c4a0" stroke-width="0.5"/>
<text x="447" y="400.1" font-size="13" font-weight="400" fill="#2d2d2d">182 964</text>
<line x1="435" y1="381" x2="435" y2="410" stroke="#d4c4a0" stroke-width="0.5"/>
<text x="627" y="400.1" font-size="13" font-weight="400" fill="#2d2d2d">365 928</text>
<line x1="615" y1="381" x2="615" y2="410" stroke="#d4c4a0" stroke-width="0.5"/>
<rect x="1" y="410" width="763" height="29" fill="#ffffff"/>
<line x1="1" y1="439" x2="764" y2="439" stroke="#d4c4a0" stroke-width="0.5"/>
<text x="13" y="429.1" font-size="13" font-weight="400" fill="#2d2d2d">S-06</text>
<text x="73" y="429.1" font-size="13" font-weight="400" fill="#2d2d2d">Back panel</text>
<line x1="61" y1="410" x2="61" y2="439" stroke="#d4c4a0" stroke-width="0.5"/>
<text x="191" y="429.1" font-size="13" font-weight="400" fill="#2d2d2d">1</text>
<line x1="179" y1="410" x2="179" y2="439" stroke="#d4c4a0" stroke-width="0.5"/>
<text x="251" y="429.1" font-size="13" font-weight="400" fill="#2d2d2d">4</text>
<line x1="239" y1="410" x2="239" y2="439" stroke="#d4c4a0" stroke-width="0.5"/>
<text x="314" y="429.1" font-size="13" font-weight="400" fill="#2d2d2d">456 × 760</text>
<line x1="302" y1="410" x2="302" y2="439" stroke="#d4c4a0" stroke-width="0.5"/>
<text x="447" y="429.1" font-size="13" font-weight="400" fill="#2d2d2d">346 560</text>
<line x1="435" y1="410" x2="435" y2="439" stroke="#d4c4a0" stroke-width="0.5"/>
<text x="627" y="429.1" font-size="13" font-weight="400" fill="#2d2d2d">346 560</text>
<line x1="615" y1="410" x2="615" y2="439" stroke="#d4c4a0" stroke-width="0.5"/>
<rect x="1" y="439" width="763" height="29" fill="#f8f4ee"/>
<text x="13" y="458.1" font-size="13" font-weight="400" fill="#2d2d2d"></text>
<text x="73" y="458.1" font-size="13" font-weight="400" fill="#2d2d2d"></text>
<line x1="61" y1="439" x2="61" y2="468" stroke="#d4c4a0" stroke-width="0.5"/>
<text x="191" y="458.1" font-size="13" font-weight="700" fill="#2d2d2d">20</text>
<line x1="179" y1="439" x2="179" y2="468" stroke="#d4c4a0" stroke-width="0.5"/>
<text x="251" y="458.1" font-size="13" font-weight="400" fill="#2d2d2d"></text>
<line x1="239" y1="439" x2="239" y2="468" stroke="#d4c4a0" stroke-width="0.5"/>
<text x="314" y="458.1" font-size="13" font-weight="400" fill="#2d2d2d"></text>
<line x1="302" y1="439" x2="302" y2="468" stroke="#d4c4a0" stroke-width="0.5"/>
<text x="447" y="458.1" font-size="13" font-weight="400" fill="#2d2d2d"></text>
<line x1="435" y1="439" x2="435" y2="468" stroke="#d4c4a0" stroke-width="0.5"/>
<text x="627" y="458.1" font-size="13" font-weight="700" fill="#2d2d2d">12 890 196</text>
<line x1="615" y1="439" x2="615" y2="468" stroke="#d4c4a0" stroke-width="0.5"/>
<rect x="1" y="33" width="763" height="435" fill="none" stroke="#d4c4a0" stroke-width="1" rx="4"/>
</svg>