<svg xmlns="http://www.w3.org/2000/svg" width="1218" height="237" viewBox="0 0 1218 237">
<style>text{font-family:system-ui,-apple-system,'Segoe UI',Roboto,Helvetica,Arial,sans-serif}</style>
<text x="609" y="22.0" text-anchor="middle" font-size="15" font-weight="700" fill="#5a4218">Cabinet 2 — Small Upper Unit</text>
<rect x="1" y="33" width="1216" height="29" fill="#5a4218" rx="4"/>
<rect x="1" y="58" width="1216" height="4" fill="#5a4218"/>
<text x="60" y="52.0" text-anchor="middle" font-size="13" font-weight="700" fill="#ffffff">Part</text>
<text x="149" y="52.0" text-anchor="middle" font-size="13" font-weight="700" fill="#ffffff">ID</text>
<text x="209" y="52.0" text-anchor="middle" font-size="13" font-weight="700" fill="#ffffff">Qty</text>
<text x="313" y="52.0" text-anchor="middle" font-size="13" font-weight="700" fill="#ffffff">Material</text>
<text x="419" y="52.0" text-anchor="middle" font-size="13" font-weight="700" fill="#ffffff">Thick</text>
<text x="486" y="52.0" text-anchor="middle" font-size="13" font-weight="700" fill="#ffffff">Length</text>
<text x="553" y="52.0" text-anchor="middle" font-size="13" font-weight="700" fill="#ffffff">Width</text>
<text x="698" y="52.0" text-anchor="middle" font-size="13" font-weight="700" fill="#ffffff">Edge banding (which edges)</text>
<text x="1014" y="52.0" text-anchor="middle" font-size="13" font-weight="700" fill="#ffffff">Notes</text>
<rect x="1" y="62" width="1216" height="29" fill="#ffffff"/>
<line x1="1" y1="91" x2="1217" y2="91" stroke="#d4c4a0" stroke-width="0.5"/>
<text x="13" y="81.0" font-size="13" font-weight="400" fill="#2d2d2d">Side panel</text>
<text x="131" y="81.0" font-size="13" font-weight="400" fill="#2d2d2d">S-01</text>
<line x1="119" y1="62" x2="119" y2="91" stroke="#d4c4a0" stroke-width="0.5"/>
<text x="191" y="81.0" font-size="13" font-weight="400" fill="#2d2d2d">2</text>
<line x1="179" y1="62" x2="179" y2="91" stroke="#d4c4a0" stroke-width="0.5"/>
<text x="251" y="81.0" font-size="13" font-weight="400" fill="#2d2d2d">Sandwich plywood</text>
<line x1="239" y1="62" x2="239" y2="91" stroke="#d4c4a0" stroke-width="0.5"/>
<text x="399" y="81.0" font-size="13" font-weight="400" fill="#2d2d2d">17</text>
<line x1="387" y1="62" x2="387" y2="91" stroke="#d4c4a0" stroke-width="0.5"/>
<text x="462" y="81.0" font-size="13" font-weight="400" fill="#2d2d2d">480</text>
<line x1="450" y1="62" x2="450" y2="91" stroke="#d4c4a0" stroke-width="0.5"/>
<text x="533" y="81.0" font-size="13" font-weight="400" fill="#2d2d2d">600</text>
<line x1="521" y1="62" x2="521" y2="91" stroke="#d4c4a0" stroke-width="0.5"/>
<text x="596" y="81.0" font-size="13" font-weight="400" fill="#2d2d2d">1 × front long edge (480)</text>
<line x1="584" y1="62" x2="584" y2="91" stroke="#d4c4a0" stroke-width="0.5"/>
<text x="823" y="81.0" font-size="13" font-weight="400" fill="#2d2d2d">Full-height; grain vertical</text>
<line x1="811" y1="62" x2="811" y2="91" stroke="#d4c4a0" stroke-width="0.5"/>
<rect x="1" y="91" width="1216" height="29" fill="#f8f4ee"/>
<line x1="1" y1="120" x2="1217" y2="120" stroke="#d4c4a0" stroke-width="0.5"/>
<text x="13" y="110.0" font-size="13" font-weight="400" fill="#2d2d2d">Top panel</text>
<text x="131" y="110.0" font-size="13" font-weight="400" fill="#2d2d2d">S-02</text>
<line x1="119" y1="91" x2="119" y2="120" stroke="#d4c4a0" stroke-width="0.5"/>
<text x="191" y="110.0" font-size="13" font-weight="400" fill="#2d2d2d">1</text>
<line x1="179" y1="91" x2="179" y2="120" stroke="#d4c4a0" stroke-width="0.5"/>
<text x="251" y="110.0" font-size="13" font-weight="400" fill="#2d2d2d">Sandwich plywood</text>
<line x1="239" y1="91" x2="239" y2="120" stroke="#d4c4a0" stroke-width="0.5"/>
<text x="399" y="110.0" font-size="13" font-weight="400" fill="#2d2d2d">17</text>
<line x1="387" y1="91" x2="387" y2="120" stroke="#d4c4a0" stroke-width="0.5"/>
<text x="462" y="110.0" font-size="13" font-weight="400" fill="#2d2d2d">746</text>
<line x1="450" y1="91" x2="450" y2="120" stroke="#d4c4a0" stroke-width="0.5"/>
<text x="533" y="110.0" font-size="13" font-weight="400" fill="#2d2d2d">600</text>
<line x1="521" y1="91" x2="521" y2="120" stroke="#d4c4a0" stroke-width="0.5"/>
<text x="596" y="110.0" font-size="13" font-weight="400" fill="#2d2d2d">1 × front long edge (746)</text>
<line x1="584" y1="91" x2="584" y2="120" stroke="#d4c4a0" stroke-width="0.5"/>
<text x="823" y="110.0" font-size="13" font-weight="400" fill="#2d2d2d">Captured between sides</text>
<line x1="811" y1="91" x2="811" y2="120" stroke="#d4c4a0" stroke-width="0.5"/>
<rect x="1" y="120" width="1216" height="29" fill="#ffffff"/>
<line x1="1" y1="149" x2="1217" y2="149" stroke="#d4c4a0" stroke-width="0.5"/>
<text x="13" y="139.1" font-size="13" font-weight="400" fill="#2d2d2d">Bottom panel</text>
<text x="131" y="139.1" font-size="13" font-weight="400" fill="#2d2d2d">S-03</text>
<line x1="119" y1="120" x2="119" y2="149" stroke="#d4c4a0" stroke-width="0.5"/>
<text x="191" y="139.1" font-size="13" font-weight="400" fill="#2d2d2d">1</text>
<line x1="179" y1="120" x2="179" y2="149" stroke="#d4c4a0" stroke-width="0.5"/>
<text x="251" y="139.1" font-size="13" font-weight="400" fill="#2d2d2d">Sandwich plywood</text>
<line x1="239" y1="120" x2="239" y2="149" stroke="#d4c4a0" stroke-width="0.5"/>
<text x="399" y="139.1" font-size="13" font-weight="400" fill="#2d2d2d">17</text>
<line x1="387" y1="120" x2="387" y2="149" stroke="#d4c4a0" stroke-width="0.5"/>
<text x="462" y="139.1" font-size="13" font-weight="400" fill="#2d2d2d">746</text>
<line x1="450" y1="120" x2="450" y2="149" stroke="#d4c4a0" stroke-width="0.5"/>
<text x="533" y="139.1" font-size="13" font-weight="400" fill="#2d2d2d">600</text>
<line x1="521" y1="120" x2="521" y2="149" stroke="#d4c4a0" stroke-width="0.5"/>
<text x="596" y="139.1" font-size="13" font-weight="400" fill="#2d2d2d">1 × front long edge (746)</text>
<line x1="584" y1="120" x2="584" y2="149" stroke="#d4c4a0" stroke-width="0.5"/>
<text x="823" y="139.1" font-size="13" font-weight="400" fill="#2d2d2d">Captured between sides</text>
<line x1="811" y1="120" x2="811" y2="149" stroke="#d4c4a0" stroke-width="0.5"/>
<rect x="1" y="149" width="1216" height="29" fill="#f8f4ee"/>
<line x1="1" y1="178" x2="1217" y2="178" stroke="#d4c4a0" stroke-width="0.5"/>
<text x="13" y="168.1" font-size="13" font-weight="400" fill="#2d2d2d">Fixed shelf</text>
<text x="131" y="168.1" font-size="13" font-weight="400" fill="#2d2d2d">S-04</text>
<line x1="119" y1="149" x2="119" y2="178" stroke="#d4c4a0" stroke-width="0.5"/>
<text x="191" y="168.1" font-size="13" font-weight="400" fill="#2d2d2d">1</text>
<line x1="179" y1="149" x2="179" y2="178" stroke="#d4c4a0" stroke-width="0.5"/>
<text x="251" y="168.1" font-size="13" font-weight="400" fill="#2d2d2d">Sandwich plywood</text>
<line x1="239" y1="149" x2="239" y2="178" stroke="#d4c4a0" stroke-width="0.5"/>
<text x="399" y="168.1" font-size="13" font-weight="400" fill="#2d2d2d">17</text>
<line x1="387" y1="149" x2="387" y2="178" stroke="#d4c4a0" stroke-width="0.5"/>
<text x="462" y="168.1" font-size="13" font-weight="400" fill="#2d2d2d">745</text>
<line x1="450" y1="149" x2="450" y2="178" stroke="#d4c4a0" stroke-width="0.5"/>
<text x="533" y="168.1" font-size="13" font-weight="400" fill="#2d2d2d">580</text>
<line x1="521" y1="149" x2="521" y2="178" stroke="#d4c4a0" stroke-width="0.5"/>
<text x="596" y="168.1" font-size="13" font-weight="400" fill="#2d2d2d">1 × front long edge (745)</text>
<line x1="584" y1="149" x2="584" y2="178" stroke="#d4c4a0" stroke-width="0.5"/>
<text x="823" y="168.1" font-size="13" font-weight="400" fill="#2d2d2d">20 mm setback from front</text>
<line x1="811" y1="149" x2="811" y2="178" stroke="#d4c4a0" stroke-width="0.5"/>
<rect x="1" y="178" width="1216" height="29" fill="#ffffff"/>
<line x1="1" y1="207" x2="1217" y2="207" stroke="#d4c4a0" stroke-width="0.5"/>
<text x="13" y="197.1" font-size="13" font-weight="400" fill="#2d2d2d">Door</text>
<text x="131" y="197.1" font-size="13" font-weight="400" fill="#2d2d2d">S-05</text>
<line x1="119" y1="178" x2="119" y2="207" stroke="#d4c4a0" stroke-width="0.5"/>
<text x="191" y="197.1" font-size="13" font-weight="400" fill="#2d2d2d">2</text>
<line x1="179" y1="178" x2="179" y2="207" stroke="#d4c4a0" stroke-width="0.5"/>
<text x="251" y="197.1" font-size="13" font-weight="400" fill="#2d2d2d">Sandwich plywood</text>
<line x1="239" y1="178" x2="239" y2="207" stroke="#d4c4a0" stroke-width="0.5"/>
<text x="399" y="197.1" font-size="13" font-weight="400" fill="#2d2d2d">17</text>
<line x1="387" y1="178" x2="387" y2="207" stroke="#d4c4a0" stroke-width="0.5"/>
<text x="462" y="197.1" font-size="13" font-weight="400" fill="#2d2d2d">474</text>
<line x1="450" y1="178" x2="450" y2="207" stroke="#d4c4a0" stroke-width="0.5"/>
<text x="533" y="197.1" font-size="13" font-weight="400" fill="#2d2d2d">386</text>
<line x1="521" y1="178" x2="521" y2="207" stroke="#d4c4a0" stroke-width="0.5"/>
<text x="596" y="197.1" font-size="13" font-weight="400" fill="#2d2d2d">All 4 edges</text>
<line x1="584" y1="178" x2="584" y2="207" stroke="#d4c4a0" stroke-width="0.5"/>
<text x="823" y="197.1" font-size="13" font-weight="400" fill="#2d2d2d">3 mm outer reveal, 2 mm center gap</text>
<line x1="811" y1="178" x2="811" y2="207" stroke="#d4c4a0" stroke-width="0.5"/>
<rect x="1" y="207" width="1216" height="29" fill="#f8f4ee"/>
<text x="13" y="226.1" font-size="13" font-weight="400" fill="#2d2d2d">Back panel</text>
<text x="131" y="226.1" font-size="13" font-weight="400" fill="#2d2d2d">S-06</text>
<line x1="119" y1="207" x2="119" y2="236" stroke="#d4c4a0" stroke-width="0.5"/>
<text x="191" y="226.1" font-size="13" font-weight="400" fill="#2d2d2d">1</text>
<line x1="179" y1="207" x2="179" y2="236" stroke="#d4c4a0" stroke-width="0.5"/>
<text x="251" y="226.1" font-size="13" font-weight="400" fill="#2d2d2d">Sandwich plywood</text>
<line x1="239" y1="207" x2="239" y2="236" stroke="#d4c4a0" stroke-width="0.5"/>
<text x="399" y="226.1" font-size="13" font-weight="400" fill="#2d2d2d">4</text>
<line x1="387" y1="207" x2="387" y2="236" stroke="#d4c4a0" stroke-width="0.5"/>
<text x="462" y="226.1" font-size="13" font-weight="400" fill="#2d2d2d">456</text>
<line x1="450" y1="207" x2="450" y2="236" stroke="#d4c4a0" stroke-width="0.5"/>
<text x="533" y="226.1" font-size="13" font-weight="400" fill="#2d2d2d">760</text>
<line x1="521" y1="207" x2="521" y2="236" stroke="#d4c4a0" stroke-width="0.5"/>
<text x="596" y="226.1" font-size="13" font-weight="400" fill="#2d2d2d">None</text>
<line x1="584" y1="207" x2="584" y2="236" stroke="#d4c4a0" stroke-width="0.5"/>
<text x="823" y="226.1" font-size="13" font-weight="400" fill="#2d2d2d">Trimmed from 460 to 456 for kerf (see §1 note 10)</text>
<line x1="811" y1="207" x2="811" y2="236" stroke="#d4c4a0" stroke-width="0.5"/>
<rect x="1" y="33" width="1216" height="203" fill="none" stroke="#d4c4a0" stroke-width="1" rx="4"/>
</svg>