<svg xmlns="http://www.w3.org/2000/svg" width="717" height="179" viewBox="0 0 717 179">
<style>text{font-family:system-ui,-apple-system,'Segoe UI',Roboto,Helvetica,Arial,sans-serif}</style>
<text x="358" y="22.0" text-anchor="middle" font-size="15" font-weight="700" fill="#5a4218">Signature Features</text>
<rect x="1" y="33" width="715" height="29" fill="#5a4218" rx="4"/>
<rect x="1" y="58" width="715" height="4" fill="#5a4218"/>
<text x="118" y="52.0" text-anchor="middle" font-size="13" font-weight="700" fill="#ffffff">Feature</text>
<text x="476" y="52.0" text-anchor="middle" font-size="13" font-weight="700" fill="#ffffff">Why it matters</text>
<rect x="1" y="62" width="715" height="29" fill="#ffffff"/>
<line x1="1" y1="91" x2="716" y2="91" stroke="#d4c4a0" stroke-width="0.5"/>
<text x="13" y="81.0" font-size="13" font-weight="400" fill="#2d2d2d">Full-depth 600 mm carcass</text>
<text x="248" y="81.0" font-size="13" font-weight="400" fill="#2d2d2d">Best usable storage volume and strongest visual presence</text>
<line x1="236" y1="62" x2="236" y2="91" stroke="#d4c4a0" stroke-width="0.5"/>
<rect x="1" y="91" width="715" height="29" fill="#f8f4ee"/>
<line x1="1" y1="120" x2="716" y2="120" stroke="#d4c4a0" stroke-width="0.5"/>
<text x="13" y="110.0" font-size="13" font-weight="400" fill="#2d2d2d">Finished front-edge banding</text>
<text x="248" y="110.0" font-size="13" font-weight="400" fill="#2d2d2d">Cleaner furniture-style read from the front elevation</text>
<line x1="236" y1="91" x2="236" y2="120" stroke="#d4c4a0" stroke-width="0.5"/>
<rect x="1" y="120" width="715" height="29" fill="#ffffff"/>
<line x1="1" y1="149" x2="716" y2="149" stroke="#d4c4a0" stroke-width="0.5"/>
<text x="13" y="139.1" font-size="13" font-weight="400" fill="#2d2d2d">All-sandwich body and doors</text>
<text x="248" y="139.1" font-size="13" font-weight="400" fill="#2d2d2d">Better long-term durability with one consistent material family</text>
<line x1="236" y1="120" x2="236" y2="149" stroke="#d4c4a0" stroke-width="0.5"/>
<rect x="1" y="149" width="715" height="29" fill="#f8f4ee"/>
<text x="13" y="168.1" font-size="13" font-weight="400" fill="#2d2d2d">Shared hardware language</text>
<text x="248" y="168.1" font-size="13" font-weight="400" fill="#2d2d2d">Keeps hinges, fasteners, and drilling patterns consistent with Plans B/C</text>
<line x1="236" y1="149" x2="236" y2="178" stroke="#d4c4a0" stroke-width="0.5"/>
<rect x="1" y="33" width="715" height="145" fill="none" stroke="#d4c4a0" stroke-width="1" rx="4"/>
</svg>