<svg xmlns="http://www.w3.org/2000/svg" width="643" height="237" viewBox="0 0 643 237">
<style>text{font-family:system-ui,-apple-system,'Segoe UI',Roboto,Helvetica,Arial,sans-serif}</style>
<text x="321" y="22.0" text-anchor="middle" font-size="15" font-weight="700" fill="#5a4218">4.2 Shelf Pin Boring (Cabinet 1 only)</text>
<rect x="1" y="33" width="641" height="29" fill="#5a4218" rx="4"/>
<rect x="1" y="58" width="641" height="4" fill="#5a4218"/>
<text x="157" y="52.0" text-anchor="middle" font-size="13" font-weight="700" fill="#ffffff">Parameter</text>
<text x="478" y="52.0" text-anchor="middle" font-size="13" font-weight="700" fill="#ffffff">Value</text>
<rect x="1" y="62" width="641" height="29" fill="#ffffff"/>
<line x1="1" y1="91" x2="642" y2="91" stroke="#d4c4a0" stroke-width="0.5"/>
<text x="13" y="81.0" font-size="13" font-weight="400" fill="#2d2d2d">Pin hole diameter</text>
<text x="326" y="81.0" font-size="13" font-weight="400" fill="#2d2d2d">5 mm (brad-point bit)</text>
<line x1="314" y1="62" x2="314" y2="91" stroke="#d4c4a0" stroke-width="0.5"/>
<rect x="1" y="91" width="641" height="29" fill="#f8f4ee"/>
<line x1="1" y1="120" x2="642" y2="120" stroke="#d4c4a0" stroke-width="0.5"/>
<text x="13" y="110.0" font-size="13" font-weight="400" fill="#2d2d2d">Hole depth</text>
<text x="326" y="110.0" font-size="13" font-weight="400" fill="#2d2d2d">10 mm</text>
<line x1="314" y1="91" x2="314" y2="120" stroke="#d4c4a0" stroke-width="0.5"/>
<rect x="1" y="120" width="641" height="29" fill="#ffffff"/>
<line x1="1" y1="149" x2="642" y2="149" stroke="#d4c4a0" stroke-width="0.5"/>
<text x="13" y="139.1" font-size="13" font-weight="400" fill="#2d2d2d">Row spacing (vertical)</text>
<text x="326" y="139.1" font-size="13" font-weight="400" fill="#2d2d2d">32 mm on-center (standard 32 mm system)</text>
<line x1="314" y1="120" x2="314" y2="149" stroke="#d4c4a0" stroke-width="0.5"/>
<rect x="1" y="149" width="641" height="29" fill="#f8f4ee"/>
<line x1="1" y1="178" x2="642" y2="178" stroke="#d4c4a0" stroke-width="0.5"/>
<text x="13" y="168.1" font-size="13" font-weight="400" fill="#2d2d2d">Number of rows per side panel</text>
<text x="326" y="168.1" font-size="13" font-weight="400" fill="#2d2d2d">4 (2 front, 2 back)</text>
<line x1="314" y1="149" x2="314" y2="178" stroke="#d4c4a0" stroke-width="0.5"/>
<rect x="1" y="178" width="641" height="29" fill="#ffffff"/>
<line x1="1" y1="207" x2="642" y2="207" stroke="#d4c4a0" stroke-width="0.5"/>
<text x="13" y="197.1" font-size="13" font-weight="400" fill="#2d2d2d">Front row center from front edge</text>
<text x="326" y="197.1" font-size="13" font-weight="400" fill="#2d2d2d">37 mm</text>
<line x1="314" y1="178" x2="314" y2="207" stroke="#d4c4a0" stroke-width="0.5"/>
<rect x="1" y="207" width="641" height="29" fill="#f8f4ee"/>
<text x="13" y="226.1" font-size="13" font-weight="400" fill="#2d2d2d">Back row center from back rabbet edge</text>
<text x="326" y="226.1" font-size="13" font-weight="400" fill="#2d2d2d">37 mm</text>
<line x1="314" y1="207" x2="314" y2="236" stroke="#d4c4a0" stroke-width="0.5"/>
<rect x="1" y="33" width="641" height="203" fill="none" stroke="#d4c4a0" stroke-width="1" rx="4"/>
</svg>