<svg xmlns="http://www.w3.org/2000/svg" width="300" height="147" viewBox="0 0 300 147">
<style>text{font-family:system-ui,-apple-system,'Segoe UI',Roboto,Helvetica,Arial,sans-serif}</style>
<rect x="1" y="1" width="298" height="29" fill="#5a4218" rx="4"/>
<rect x="1" y="26" width="298" height="4" fill="#5a4218"/>
<text x="40" y="20.1" text-anchor="middle" font-size="13" font-weight="700" fill="#ffffff">Hinge #</text>
<text x="189" y="20.1" text-anchor="middle" font-size="13" font-weight="700" fill="#ffffff">Distance from top of door</text>
<rect x="1" y="30" width="298" height="29" fill="#ffffff"/>
<line x1="1" y1="59" x2="299" y2="59" stroke="#d4c4a0" stroke-width="0.5"/>
<text x="13" y="49.0" font-size="13" font-weight="400" fill="#2d2d2d">1</text>
<text x="92" y="49.0" font-size="13" font-weight="400" fill="#2d2d2d">100 mm</text>
<line x1="80" y1="30" x2="80" y2="59" stroke="#d4c4a0" stroke-width="0.5"/>
<rect x="1" y="59" width="298" height="29" fill="#f8f4ee"/>
<line x1="1" y1="88" x2="299" y2="88" stroke="#d4c4a0" stroke-width="0.5"/>
<text x="13" y="78.0" font-size="13" font-weight="400" fill="#2d2d2d">2</text>
<text x="92" y="78.0" font-size="13" font-weight="400" fill="#2d2d2d">698 mm</text>
<line x1="80" y1="59" x2="80" y2="88" stroke="#d4c4a0" stroke-width="0.5"/>
<rect x="1" y="88" width="298" height="29" fill="#ffffff"/>
<line x1="1" y1="117" x2="299" y2="117" stroke="#d4c4a0" stroke-width="0.5"/>
<text x="13" y="107.0" font-size="13" font-weight="400" fill="#2d2d2d">3</text>
<text x="92" y="107.0" font-size="13" font-weight="400" fill="#2d2d2d">1296 mm</text>
<line x1="80" y1="88" x2="80" y2="117" stroke="#d4c4a0" stroke-width="0.5"/>
<rect x="1" y="117" width="298" height="29" fill="#f8f4ee"/>
<text x="13" y="136.1" font-size="13" font-weight="400" fill="#2d2d2d">4</text>
<text x="92" y="136.1" font-size="13" font-weight="400" fill="#2d2d2d">1894 mm</text>
<line x1="80" y1="117" x2="80" y2="146" stroke="#d4c4a0" stroke-width="0.5"/>
<rect x="1" y="1" width="298" height="145" fill="none" stroke="#d4c4a0" stroke-width="1" rx="4"/>
</svg>