<svg xmlns="http://www.w3.org/2000/svg" width="823" height="121" viewBox="0 0 823 121">
<style>text{font-family:system-ui,-apple-system,'Segoe UI',Roboto,Helvetica,Arial,sans-serif}</style>
<text x="411" y="22.0" text-anchor="middle" font-size="15" font-weight="700" fill="#5a4218">Download PDFs</text>
<rect x="1" y="33" width="821" height="29" fill="#5a4218" rx="4"/>
<rect x="1" y="58" width="821" height="4" fill="#5a4218"/>
<text x="122" y="52.0" text-anchor="middle" font-size="13" font-weight="700" fill="#ffffff">Cabinet</text>
<text x="388" y="52.0" text-anchor="middle" font-size="13" font-weight="700" fill="#ffffff">English</text>
<text x="677" y="52.0" text-anchor="middle" font-size="13" font-weight="700" fill="#ffffff">Hebrew</text>
<rect x="1" y="62" width="821" height="29" fill="#ffffff"/>
<line x1="1" y1="91" x2="822" y2="91" stroke="#d4c4a0" stroke-width="0.5"/>
<text x="13" y="81.0" font-size="13" font-weight="400" fill="#2d2d2d">Large (2000 × 1000 × 600 mm)</text>
<text x="255" y="81.0" font-size="13" font-weight="400" fill="#2d2d2d">Large_Pantry_Cabinet_Plan_A_EN.pdf</text>
<line x1="243" y1="62" x2="243" y2="91" stroke="#d4c4a0" stroke-width="0.5"/>
<text x="545" y="81.0" font-size="13" font-weight="400" fill="#2d2d2d">Large_Pantry_Cabinet_Plan_A_HE.pdf</text>
<line x1="533" y1="62" x2="533" y2="91" stroke="#d4c4a0" stroke-width="0.5"/>
<rect x="1" y="91" width="821" height="29" fill="#f8f4ee"/>
<text x="13" y="110.0" font-size="13" font-weight="400" fill="#2d2d2d">Small (480 × 780 × 600 mm)</text>
<text x="255" y="110.0" font-size="13" font-weight="400" fill="#2d2d2d">Small_Pantry_Cabinet_Plan_A_EN.pdf</text>
<line x1="243" y1="91" x2="243" y2="120" stroke="#d4c4a0" stroke-width="0.5"/>
<text x="545" y="110.0" font-size="13" font-weight="400" fill="#2d2d2d">Small_Pantry_Cabinet_Plan_A_HE.pdf</text>
<line x1="533" y1="91" x2="533" y2="120" stroke="#d4c4a0" stroke-width="0.5"/>
<rect x="1" y="33" width="821" height="87" fill="none" stroke="#d4c4a0" stroke-width="1" rx="4"/>
</svg>