999
Cabinet Planner DXF Export
999
Version: 5.29.9
999
Schema: dxf-ac1015-v2
999
Generated: <normalized>
999
Sheet: 1  Material: plywood-17  Thickness: 17mm
999
Parts: 11
0
SECTION
2
HEADER
9
$ACADVER
1
AC1015
9
$DWGCODEPAGE
3
ANSI_1252
9
$INSUNITS
70
4
9
$MEASUREMENT
70
1
0
ENDSEC
0
SECTION
2
CLASSES
0
ENDSEC
0
SECTION
2
TABLES
0
TABLE
2
VPORT
70
1
0
VPORT
2
*Active
70
0
0
ENDTAB
0
TABLE
2
LTYPE
70
1
0
LTYPE
2
CONTINUOUS
70
0
3
Solid line
72
65
73
0
40
0.0
0
ENDTAB
0
TABLE
2
LAYER
70
8
0
LAYER
2
SHEET
70
0
62
7
6
CONTINUOUS
0
LAYER
2
MAT_PLYWOOD-17
70
0
62
3
6
CONTINUOUS
0
LAYER
2
LABELS
70
0
62
5
6
CONTINUOUS
0
LAYER
2
PARTS
70
0
62
3
6
CONTINUOUS
0
LAYER
2
GRAIN_CONFLICT
70
0
62
1
6
CONTINUOUS
0
LAYER
2
ROTATION_LOCKED
70
0
62
6
6
CONTINUOUS
0
LAYER
2
EDGE_BANDED
70
0
62
4
6
CONTINUOUS
0
LAYER
2
DIMENSIONS
70
0
62
2
6
CONTINUOUS
0
ENDTAB
0
TABLE
2
STYLE
70
1
0
STYLE
2
Standard
70
0
40
0.0
41
1.0
50
0.0
71
0
42
0.2
3
arial.shx
4

0
ENDTAB
0
TABLE
2
VIEW
70
0
0
ENDTAB
0
TABLE
2
UCS
70
0
0
ENDTAB
0
TABLE
2
APPID
70
1
0
APPID
2
ACAD
70
0
0
ENDTAB
0
TABLE
2
DIMSTYLE
70
1
0
DIMSTYLE
2
Standard
70
0
3

4

40
1.0
41
3.0
42
1.0
43
9.0
44
1.0
140
3.0
147
1.0
73
0
74
0
77
0
78
0
170
0
171
2
172
0
173
0
174
0
175
0
176
0
177
0
178
0
0
ENDTAB
0
TABLE
2
BLOCK_RECORD
70
2
0
BLOCK_RECORD
2
*Model_Space
0
BLOCK_RECORD
2
*Paper_Space
0
ENDTAB
0
ENDSEC
0
SECTION
2
BLOCKS
0
BLOCK
8
0
2
*Model_Space
70
0
10
0.0
20
0.0
30
0.0
3
*Model_Space
1

0
ENDBLK
0
BLOCK
8
0
2
*Paper_Space
70
0
10
0.0
20
0.0
30
0.0
3
*Paper_Space
1

0
ENDBLK
0
ENDSEC
0
SECTION
2
ENTITIES
0
LWPOLYLINE
8
SHEET
90
4
70
1
10
0
20
0
10
1220
20
0
10
1220
20
2440
10
0
20
2440
0
LWPOLYLINE
8
MAT_PLYWOOD-17
90
4
70
1
10
0
20
0
10
100
20
0
10
100
20
900
10
0
20
900
0
LWPOLYLINE
8
EDGE_BANDED
90
4
70
1
10
0
20
0
10
100
20
0
10
100
20
900
10
0
20
900
0
TEXT
8
LABELS
10
50
20
450
30
0
40
20
1
P11 100x900
72
1
73
2
11
50
21
450
31
0
0
DIMENSION
8
DIMENSIONS
2
*Model_Space
10
100
20
-8
30
0.0
11
50
21
-11
31
0.0
70
0
1

3
Standard
100
AcDbAlignedDimension
13
0
23
0
33
0.0
14
100
24
0
34
0.0
50
0.0
0
DIMENSION
8
DIMENSIONS
2
*Model_Space
10
108
20
900
30
0.0
11
111
21
450
31
0.0
70
1
1

3
Standard
100
AcDbAlignedDimension
13
100
23
0
33
0.0
14
100
24
900
34
0.0
50
90.0
0
LWPOLYLINE
8
MAT_PLYWOOD-17
90
4
70
1
10
103
20
0
10
663
20
0
10
663
20
866
10
103
20
866
0
LWPOLYLINE
8
EDGE_BANDED
90
4
70
1
10
103
20
0
10
663
20
0
10
663
20
866
10
103
20
866
0
TEXT
8
LABELS
10
383
20
433
30
0
40
20
1
P02 560x866
72
1
73
2
11
383
21
433
31
0
0
DIMENSION
8
DIMENSIONS
2
*Model_Space
10
663
20
-8
30
0.0
11
383
21
-11
31
0.0
70
0
1

3
Standard
100
AcDbAlignedDimension
13
103
23
0
33
0.0
14
663
24
0
34
0.0
50
0.0
0
DIMENSION
8
DIMENSIONS
2
*Model_Space
10
671
20
866
30
0.0
11
674
21
433
31
0.0
70
1
1

3
Standard
100
AcDbAlignedDimension
13
663
23
0
33
0.0
14
663
24
866
34
0.0
50
90.0
0
LWPOLYLINE
8
MAT_PLYWOOD-17
90
4
70
1
10
103
20
869
10
663
20
869
10
663
20
1735
10
103
20
1735
0
LWPOLYLINE
8
EDGE_BANDED
90
4
70
1
10
103
20
869
10
663
20
869
10
663
20
1735
10
103
20
1735
0
TEXT
8
LABELS
10
383
20
1302
30
0
40
20
1
P03 560x866
72
1
73
2
11
383
21
1302
31
0
0
DIMENSION
8
DIMENSIONS
2
*Model_Space
10
663
20
861
30
0.0
11
383
21
858
31
0.0
70
0
1

3
Standard
100
AcDbAlignedDimension
13
103
23
869
33
0.0
14
663
24
869
34
0.0
50
0.0
0
DIMENSION
8
DIMENSIONS
2
*Model_Space
10
671
20
1735
30
0.0
11
674
21
1302
31
0.0
70
1
1

3
Standard
100
AcDbAlignedDimension
13
663
23
869
33
0.0
14
663
24
1735
34
0.0
50
90.0
0
LWPOLYLINE
8
MAT_PLYWOOD-17
90
4
70
1
10
0
20
1738
10
866
20
1738
10
866
20
1918
10
0
20
1918
0
LWPOLYLINE
8
EDGE_BANDED
90
4
70
1
10
0
20
1738
10
866
20
1738
10
866
20
1918
10
0
20
1918
0
TEXT
8
LABELS
10
433
20
1828
30
0
40
20
1
P06 866x180
72
1
73
2
11
433
21
1828
31
0
0
DIMENSION
8
DIMENSIONS
2
*Model_Space
10
866
20
1730
30
0.0
11
433
21
1727
31
0.0
70
0
1

3
Standard
100
AcDbAlignedDimension
13
0
23
1738
33
0.0
14
866
24
1738
34
0.0
50
0.0
0
DIMENSION
8
DIMENSIONS
2
*Model_Space
10
874
20
1918
30
0.0
11
877
21
1828
31
0.0
70
1
1

3
Standard
100
AcDbAlignedDimension
13
866
23
1738
33
0.0
14
866
24
1918
34
0.0
50
90.0
0
LWPOLYLINE
8
MAT_PLYWOOD-17
90
4
70
1
10
666
20
0
10
1206
20
0
10
1206
20
864
10
666
20
864
0
LWPOLYLINE
8
EDGE_BANDED
90
4
70
1
10
666
20
0
10
1206
20
0
10
1206
20
864
10
666
20
864
0
TEXT
8
LABELS
10
936
20
432
30
0
40
20
1
P04 540x864
72
1
73
2
11
936
21
432
31
0
0
DIMENSION
8
DIMENSIONS
2
*Model_Space
10
1206
20
-8
30
0.0
11
936
21
-11
31
0.0
70
0
1

3
Standard
100
AcDbAlignedDimension
13
666
23
0
33
0.0
14
1206
24
0
34
0.0
50
0.0
0
DIMENSION
8
DIMENSIONS
2
*Model_Space
10
1214
20
864
30
0.0
11
1217
21
432
31
0.0
70
1
1

3
Standard
100
AcDbAlignedDimension
13
1206
23
0
33
0.0
14
1206
24
864
34
0.0
50
90.0
0
LWPOLYLINE
8
MAT_PLYWOOD-17
90
4
70
1
10
666
20
867
10
1206
20
867
10
1206
20
1731
10
666
20
1731
0
LWPOLYLINE
8
EDGE_BANDED
90
4
70
1
10
666
20
867
10
1206
20
867
10
1206
20
1731
10
666
20
1731
0
TEXT
8
LABELS
10
936
20
1299
30
0
40
20
1
P04 540x864
72
1
73
2
11
936
21
1299
31
0
0
DIMENSION
8
DIMENSIONS
2
*Model_Space
10
1206
20
859
30
0.0
11
936
21
856
31
0.0
70
0
1

3
Standard
100
AcDbAlignedDimension
13
666
23
867
33
0.0
14
1206
24
867
34
0.0
50
0.0
0
DIMENSION
8
DIMENSIONS
2
*Model_Space
10
1214
20
1731
30
0.0
11
1217
21
1299
31
0.0
70
1
1

3
Standard
100
AcDbAlignedDimension
13
1206
23
867
33
0.0
14
1206
24
1731
34
0.0
50
90.0
0
LWPOLYLINE
8
GRAIN_CONFLICT
90
4
70
1
10
0
20
1921
10
806
20
1921
10
806
20
2071
10
0
20
2071
0
LWPOLYLINE
8
EDGE_BANDED
90
4
70
1
10
0
20
1921
10
806
20
1921
10
806
20
2071
10
0
20
2071
0
TEXT
8
LABELS
10
403
20
1996
30
0
40
20
1
P08 806x150
72
1
73
2
11
403
21
1996
31
0
0
DIMENSION
8
DIMENSIONS
2
*Model_Space
10
806
20
1913
30
0.0
11
403
21
1910
31
0.0
70
0
1

3
Standard
100
AcDbAlignedDimension
13
0
23
1921
33
0.0
14
806
24
1921
34
0.0
50
0.0
0
DIMENSION
8
DIMENSIONS
2
*Model_Space
10
814
20
2071
30
0.0
11
817
21
1996
31
0.0
70
1
1

3
Standard
100
AcDbAlignedDimension
13
806
23
1921
33
0.0
14
806
24
2071
34
0.0
50
90.0
0
LWPOLYLINE
8
GRAIN_CONFLICT
90
4
70
1
10
0
20
2074
10
806
20
2074
10
806
20
2224
10
0
20
2224
0
LWPOLYLINE
8
EDGE_BANDED
90
4
70
1
10
0
20
2074
10
806
20
2074
10
806
20
2224
10
0
20
2224
0
TEXT
8
LABELS
10
403
20
2149
30
0
40
20
1
P08 806x150
72
1
73
2
11
403
21
2149
31
0
0
DIMENSION
8
DIMENSIONS
2
*Model_Space
10
806
20
2066
30
0.0
11
403
21
2063
31
0.0
70
0
1

3
Standard
100
AcDbAlignedDimension
13
0
23
2074
33
0.0
14
806
24
2074
34
0.0
50
0.0
0
DIMENSION
8
DIMENSIONS
2
*Model_Space
10
814
20
2224
30
0.0
11
817
21
2149
31
0.0
70
1
1

3
Standard
100
AcDbAlignedDimension
13
806
23
2074
33
0.0
14
806
24
2224
34
0.0
50
90.0
0
LWPOLYLINE
8
MAT_PLYWOOD-17
90
4
70
1
10
0
20
903
10
100
20
903
10
100
20
1446
10
0
20
1446
0
LWPOLYLINE
8
EDGE_BANDED
90
4
70
1
10
0
20
903
10
100
20
903
10
100
20
1446
10
0
20
1446
0
TEXT
8
LABELS
10
50
20
1174.5
30
0
40
20
1
P12 100x543
72
1
73
2
11
50
21
1174.5
31
0
0
DIMENSION
8
DIMENSIONS
2
*Model_Space
10
100
20
895
30
0.0
11
50
21
892
31
0.0
70
0
1

3
Standard
100
AcDbAlignedDimension
13
0
23
903
33
0.0
14
100
24
903
34
0.0
50
0.0
0
DIMENSION
8
DIMENSIONS
2
*Model_Space
10
108
20
1446
30
0.0
11
111
21
1174.5
31
0.0
70
1
1

3
Standard
100
AcDbAlignedDimension
13
100
23
903
33
0.0
14
100
24
1446
34
0.0
50
90.0
0
LWPOLYLINE
8
MAT_PLYWOOD-17
90
4
70
1
10
869
20
1734
10
969
20
1734
10
969
20
2277
10
869
20
2277
0
LWPOLYLINE
8
EDGE_BANDED
90
4
70
1
10
869
20
1734
10
969
20
1734
10
969
20
2277
10
869
20
2277
0
TEXT
8
LABELS
10
919
20
2005.5
30
0
40
20
1
P12 100x543
72
1
73
2
11
919
21
2005.5
31
0
0
DIMENSION
8
DIMENSIONS
2
*Model_Space
10
969
20
1726
30
0.0
11
919
21
1723
31
0.0
70
0
1

3
Standard
100
AcDbAlignedDimension
13
869
23
1734
33
0.0
14
969
24
1734
34
0.0
50
0.0
0
DIMENSION
8
DIMENSIONS
2
*Model_Space
10
977
20
2277
30
0.0
11
980
21
2005.5
31
0.0
70
1
1

3
Standard
100
AcDbAlignedDimension
13
969
23
1734
33
0.0
14
969
24
2277
34
0.0
50
90.0
0
LWPOLYLINE
8
MAT_PLYWOOD-17
90
4
70
1
10
972
20
1734
10
1122
20
1734
10
1122
20
2234
10
972
20
2234
0
LWPOLYLINE
8
EDGE_BANDED
90
4
70
1
10
972
20
1734
10
1122
20
1734
10
1122
20
2234
10
972
20
2234
0
TEXT
8
LABELS
10
1047
20
1984
30
0
40
20
1
P07 150x500
72
1
73
2
11
1047
21
1984
31
0
0
DIMENSION
8
DIMENSIONS
2
*Model_Space
10
1122
20
1726
30
0.0
11
1047
21
1723
31
0.0
70
0
1

3
Standard
100
AcDbAlignedDimension
13
972
23
1734
33
0.0
14
1122
24
1734
34
0.0
50
0.0
0
DIMENSION
8
DIMENSIONS
2
*Model_Space
10
1130
20
2234
30
0.0
11
1133
21
1984
31
0.0
70
1
1

3
Standard
100
AcDbAlignedDimension
13
1122
23
1734
33
0.0
14
1122
24
2234
34
0.0
50
90.0
0
ENDSEC
0
SECTION
2
OBJECTS
0
DICTIONARY
3
ACAD_GROUP
350
0
0
ENDSEC
0
EOF