<svg xmlns="http://www.w3.org/2000/svg" width="1560" height="2100" viewBox="0 0 1560 2100">
  <defs>
    <style>
      .title { font: 700 22px Arial, sans-serif; fill: #1f2937; }
      .sub { font: 700 15px Arial, sans-serif; fill: #1f2937; }
      .lbl { font: 600 11px Arial, sans-serif; fill: #1e3a8a; }
      .sz { font: 11px Arial, sans-serif; fill: #475569; }
      .pct { font: 600 13px Arial, sans-serif; fill: #0f766e; }
      .sheet { fill: #f1f5f9; stroke: #334155; stroke-width: 2; }
      .L { fill: #dbeafe; stroke: #1d4ed8; stroke-width: 1.4; }
      .S { fill: #dcfce7; stroke: #166534; stroke-width: 1.4; }
      .waste { fill: #f3f4f6; stroke: #9ca3af; stroke-width: 1; stroke-dasharray: 4 3; }
      .kerf { stroke: #ef4444; stroke-width: 0.7; stroke-dasharray: 2 2; }
      .note { fill: #fffbeb; stroke: #d97706; stroke-width: 1.2; }
    </style>
  </defs>

  <!-- Scale: 1:4  →  1 mm = 0.25 px  →  Sheet 2440×1220 = 610×305 px -->

  <text x="40" y="36" class="title">17 mm Plywood Cut Plan — 5 Sheets at 1 : 4 Scale</text>
  <text x="40" y="58" class="sz">Sheet: 2440 × 1220 mm = 610 × 305 px | Kerf: 4 mm (1 px) | Blue = Large cabinet | Green = Small cabinet</text>

  <!-- ===== SHEET 1 ===== -->
  <g transform="translate(40,100)">
    <text x="0" y="-12" class="sub">Sheet 1</text>
    <text x="540" y="-12" class="pct">Yield 92.9 %</text>
    <rect x="0" y="0" width="610" height="305" class="sheet"/>
    <!-- L-01 side ×2: 2000×600 → 500×150 -->
    <rect x="0" y="0" width="500" height="150" class="L"/>
    <text x="190" y="72" class="lbl">L-01</text>
    <text x="170" y="90" class="sz">2000 × 600</text>
    <rect x="0" y="151" width="500" height="150" class="L"/>
    <text x="190" y="223" class="lbl">L-01</text>
    <text x="170" y="241" class="sz">2000 × 600</text>
    <line x1="0" y1="150" x2="500" y2="150" class="kerf"/>
    <!-- S-05 door ×2 rotated: 386×474 → 96.5×118.5 -->
    <rect x="501" y="0" width="96.5" height="118.5" class="S"/>
    <text x="520" y="56" class="lbl">S-05</text>
    <text x="508" y="72" class="sz">386×474 R</text>
    <rect x="501" y="119.5" width="96.5" height="118.5" class="S"/>
    <text x="520" y="176" class="lbl">S-05</text>
    <text x="508" y="192" class="sz">386×474 R</text>
    <line x1="501" y1="118.5" x2="597.5" y2="118.5" class="kerf"/>
    <!-- waste -->
    <rect x="501" y="239" width="109" height="66" class="waste"/>
    <rect x="0" y="302" width="610" height="3" class="waste"/>
    <text x="530" y="278" class="sz">waste</text>
  </g>

  <!-- ===== SHEET 2 ===== -->
  <g transform="translate(40,480)">
    <text x="0" y="-12" class="sub">Sheet 2</text>
    <text x="540" y="-12" class="pct">Yield 66.4 %</text>
    <rect x="0" y="0" width="610" height="305" class="sheet"/>
    <!-- L-06 door ×2: 1994×496 → 498.5×124 -->
    <rect x="0" y="0" width="498.5" height="124" class="L"/>
    <text x="200" y="60" class="lbl">L-06</text>
    <text x="180" y="78" class="sz">1994 × 496</text>
    <rect x="0" y="125" width="498.5" height="124" class="L"/>
    <text x="200" y="185" class="lbl">L-06</text>
    <text x="180" y="203" class="sz">1994 × 496</text>
    <line x1="0" y1="124" x2="498.5" y2="124" class="kerf"/>
    <!-- waste zones -->
    <rect x="0" y="249" width="498.5" height="56" class="waste"/>
    <rect x="499.5" y="0" width="110.5" height="305" class="waste"/>
    <text x="220" y="282" class="sz">waste (1994 × 224)</text>
    <text x="508" y="156" class="sz">waste</text>
    <text x="508" y="172" class="sz">(442 ×</text>
    <text x="508" y="188" class="sz"> 1220)</text>
  </g>

  <!-- ===== SHEET 3 ===== -->
  <g transform="translate(40,860)">
    <text x="0" y="-12" class="sub">Sheet 3</text>
    <text x="540" y="-12" class="pct">Yield 88.4 %</text>
    <rect x="0" y="0" width="610" height="305" class="sheet"/>
    <!-- Row A (y=0, h=150): L-02, S-01, S-02 -->
    <rect x="0" y="0" width="241.5" height="150" class="L"/>
    <text x="80" y="72" class="lbl">L-02</text>
    <text x="68" y="90" class="sz">966 × 600</text>
    <rect x="242.5" y="0" width="120" height="150" class="S"/>
    <text x="276" y="72" class="lbl">S-01</text>
    <text x="264" y="90" class="sz">480 × 600</text>
    <rect x="363.5" y="0" width="186.5" height="150" class="S"/>
    <text x="422" y="72" class="lbl">S-02</text>
    <text x="410" y="90" class="sz">746 × 600</text>
    <!-- Row B (y=151, h=150): L-03, S-01, S-03 -->
    <rect x="0" y="151" width="241.5" height="150" class="L"/>
    <text x="80" y="223" class="lbl">L-03</text>
    <text x="68" y="241" class="sz">966 × 600</text>
    <rect x="242.5" y="151" width="120" height="150" class="S"/>
    <text x="276" y="223" class="lbl">S-01</text>
    <text x="264" y="241" class="sz">480 × 600</text>
    <rect x="363.5" y="151" width="186.5" height="150" class="S"/>
    <text x="422" y="223" class="lbl">S-03</text>
    <text x="410" y="241" class="sz">746 × 600</text>
    <line x1="0" y1="150" x2="550" y2="150" class="kerf"/>
    <!-- waste -->
    <rect x="551" y="0" width="59" height="150" class="waste"/>
    <rect x="551" y="151" width="59" height="150" class="waste"/>
    <text x="556" y="78" class="sz">240</text>
    <rect x="0" y="302" width="610" height="3" class="waste"/>
  </g>

  <!-- ===== SHEET 4 ===== -->
  <g transform="translate(820,100)">
    <text x="0" y="-12" class="sub">Sheet 4</text>
    <text x="540" y="-12" class="pct">Yield 70.9 %</text>
    <rect x="0" y="0" width="610" height="305" class="sheet"/>
    <!-- Row A (y=0, h=145): L-04, L-05 -->
    <rect x="0" y="0" width="241.5" height="145" class="L"/>
    <text x="80" y="68" class="lbl">L-04</text>
    <text x="68" y="86" class="sz">966 × 580</text>
    <rect x="242.5" y="0" width="241" height="145" class="L"/>
    <text x="326" y="68" class="lbl">L-05</text>
    <text x="314" y="86" class="sz">964 × 580</text>
    <!-- Row B (y=146, h=145): L-05, S-04 -->
    <rect x="0" y="146" width="241" height="145" class="L"/>
    <text x="80" y="214" class="lbl">L-05</text>
    <text x="68" y="232" class="sz">964 × 580</text>
    <rect x="242" y="146" width="186.25" height="145" class="S"/>
    <text x="300" y="214" class="lbl">S-04</text>
    <text x="288" y="232" class="sz">745 × 580</text>
    <line x1="0" y1="145" x2="483.5" y2="145" class="kerf"/>
    <!-- waste -->
    <rect x="484.5" y="0" width="125.5" height="145" class="waste"/>
    <rect x="429.25" y="146" width="180.75" height="145" class="waste"/>
    <rect x="0" y="292" width="610" height="13" class="waste"/>
    <text x="510" y="68" class="sz">waste</text>
    <text x="488" y="214" class="sz">waste</text>
  </g>

  <!-- ===== SHEET 5 ===== -->
  <g transform="translate(820,480)">
    <text x="0" y="-12" class="sub">Sheet 5</text>
    <text x="540" y="-12" class="pct">Yield 37.6 %</text>
    <rect x="0" y="0" width="610" height="305" class="sheet"/>
    <!-- Row A (y=0, h=145): L-05 ×2 -->
    <rect x="0" y="0" width="241" height="145" class="L"/>
    <text x="80" y="68" class="lbl">L-05</text>
    <text x="68" y="86" class="sz">964 × 580</text>
    <rect x="242" y="0" width="241" height="145" class="L"/>
    <text x="326" y="68" class="lbl">L-05</text>
    <text x="314" y="86" class="sz">964 × 580</text>
    <line x1="241" y1="0" x2="241" y2="145" class="kerf"/>
    <!-- large waste area -->
    <rect x="484" y="0" width="126" height="145" class="waste"/>
    <rect x="0" y="146" width="610" height="159" class="waste"/>
    <text x="210" y="230" class="sz">Reserve offcut (2440 × 640)</text>
  </g>

  <!-- ===== SHOP NOTES ===== -->
  <g transform="translate(820,860)">
    <rect x="0" y="0" width="610" height="305" class="note" rx="6"/>
    <text x="20" y="32" class="sub">Shop Notes</text>
    <text x="20" y="62" class="sz">1. Rip each sheet into strips of equal width first (600, 580, or 496), then crosscut to length.</text>
    <text x="20" y="86" class="sz">2. Keep 4 mm (one kerf) between neighboring finished parts.</text>
    <text x="20" y="110" class="sz">3. Mark each part with its ID (L-01 … S-06) on a hidden face immediately after cutting.</text>
    <text x="20" y="134" class="sz">4. Run face grain vertically on sides and doors; lengthwise on shelves.</text>
    <text x="20" y="158" class="sz">5. If your blade kerf is 3 mm, you gain 1 mm per cut — do not resize parts.</text>
    <text x="20" y="182" class="sz">6. Sheet 5 has the most waste. Save the 2440 × 640 offcut for shelving or jigs.</text>
    <text x="20" y="206" class="sz">7. A CNC nesting service could reduce to 4 sheets at ~89 % yield (requires L-shaped cuts).</text>
    <text x="20" y="240" class="sz">Blue = Large cabinet parts</text>
    <rect x="252" y="228" width="18" height="14" class="L"/>
    <text x="20" y="264" class="sz">Green = Small cabinet parts</text>
    <rect x="262" y="252" width="18" height="14" class="S"/>
    <text x="20" y="288" class="sz">Dashed red = saw kerf line</text>
  </g>
</svg>