<svg xmlns="http://www.w3.org/2000/svg" width="670" height="234" viewBox="0 0 670 234">
<style>text{font-family:system-ui,-apple-system,'Segoe UI',Roboto,Helvetica,Arial,sans-serif}</style>
<rect x="1" y="1" width="668" height="29" fill="#5a4218" rx="4"/>
<rect x="1" y="26" width="668" height="4" fill="#5a4218"/>
<text x="95" y="20.1" text-anchor="middle" font-size="13" font-weight="700" fill="#ffffff">Feature</text>
<text x="429" y="20.1" text-anchor="middle" font-size="13" font-weight="700" fill="#ffffff">Description</text>
<rect x="1" y="30" width="668" height="29" fill="#ffffff"/>
<line x1="1" y1="59" x2="669" y2="59" stroke="#d4c4a0" stroke-width="0.5"/>
<text x="13" y="49.0" font-size="13" font-weight="700" fill="#2d2d2d">Multi-cabinet project</text>
<text x="201" y="49.0" font-size="13" font-weight="400" fill="#2d2d2d">Design a full room: multiple cabinets with shared material optimization</text>
<line x1="189" y1="30" x2="189" y2="59" stroke="#d4c4a0" stroke-width="0.5"/>
<rect x="1" y="59" width="668" height="29" fill="#f8f4ee"/>
<line x1="1" y1="88" x2="669" y2="88" stroke="#d4c4a0" stroke-width="0.5"/>
<text x="13" y="78.0" font-size="13" font-weight="700" fill="#2d2d2d">3D WebGL preview</text>
<text x="201" y="78.0" font-size="13" font-weight="400" fill="#2d2d2d">Three.js-based interactive 3D view with orbit controls</text>
<line x1="189" y1="59" x2="189" y2="88" stroke="#d4c4a0" stroke-width="0.5"/>
<rect x="1" y="88" width="668" height="29" fill="#ffffff"/>
<line x1="1" y1="117" x2="669" y2="117" stroke="#d4c4a0" stroke-width="0.5"/>
<text x="13" y="107.0" font-size="13" font-weight="700" fill="#2d2d2d">Price calculator</text>
<text x="201" y="107.0" font-size="13" font-weight="400" fill="#2d2d2d">Per-material pricing with supplier integration</text>
<line x1="189" y1="88" x2="189" y2="117" stroke="#d4c4a0" stroke-width="0.5"/>
<rect x="1" y="117" width="668" height="29" fill="#f8f4ee"/>
<line x1="1" y1="146" x2="669" y2="146" stroke="#d4c4a0" stroke-width="0.5"/>
<text x="13" y="136.1" font-size="13" font-weight="700" fill="#2d2d2d">Export to CNC</text>
<text x="201" y="136.1" font-size="13" font-weight="400" fill="#2d2d2d">Generate DXF/G-code for CNC router</text>
<line x1="189" y1="117" x2="189" y2="146" stroke="#d4c4a0" stroke-width="0.5"/>
<rect x="1" y="146" width="668" height="29" fill="#ffffff"/>
<line x1="1" y1="175" x2="669" y2="175" stroke="#d4c4a0" stroke-width="0.5"/>
<text x="13" y="165.1" font-size="13" font-weight="700" fill="#2d2d2d">Assembly video links</text>
<text x="201" y="165.1" font-size="13" font-weight="400" fill="#2d2d2d">Embed step-by-step video guides</text>
<line x1="189" y1="146" x2="189" y2="175" stroke="#d4c4a0" stroke-width="0.5"/>
<rect x="1" y="175" width="668" height="29" fill="#f8f4ee"/>
<line x1="1" y1="204" x2="669" y2="204" stroke="#d4c4a0" stroke-width="0.5"/>
<text x="13" y="194.1" font-size="13" font-weight="700" fill="#2d2d2d">Community gallery</text>
<text x="201" y="194.1" font-size="13" font-weight="400" fill="#2d2d2d">Users share their built cabinets (photos + config)</text>
<line x1="189" y1="175" x2="189" y2="204" stroke="#d4c4a0" stroke-width="0.5"/>
<rect x="1" y="204" width="668" height="29" fill="#ffffff"/>
<text x="13" y="223.1" font-size="13" font-weight="700" fill="#2d2d2d">More furniture types</text>
<text x="201" y="223.1" font-size="13" font-weight="400" fill="#2d2d2d">Bookshelves, desks, wardrobes using the same parametric engine</text>
<line x1="189" y1="204" x2="189" y2="233" stroke="#d4c4a0" stroke-width="0.5"/>
<rect x="1" y="1" width="668" height="232" fill="none" stroke="#d4c4a0" stroke-width="1" rx="4"/>
</svg>