<svg xmlns="http://www.w3.org/2000/svg" width="674" height="295" viewBox="0 0 674 295">
<style>text{font-family:system-ui,-apple-system,'Segoe UI',Roboto,Helvetica,Arial,sans-serif}</style>
<text x="337" y="22.0" text-anchor="middle" font-size="15" font-weight="700" fill="#5a4218">2.2 Mapping from Python → React SVG</text>
<rect x="1" y="33" width="672" height="29" fill="#5a4218" rx="4"/>
<rect x="1" y="58" width="672" height="4" fill="#5a4218"/>
<text x="130" y="52.0" text-anchor="middle" font-size="13" font-weight="700" fill="#ffffff">Python (reportlab)</text>
<text x="466" y="52.0" text-anchor="middle" font-size="13" font-weight="700" fill="#ffffff">React SVG</text>
<rect x="1" y="62" width="672" height="29" fill="#ffffff"/>
<line x1="1" y1="91" x2="673" y2="91" stroke="#d4c4a0" stroke-width="0.5"/>
<text x="13" y="81.0" font-size="13" font-weight="400" fill="#2d2d2d">Drawing(w, h)</text>
<text x="271" y="81.0" font-size="13" font-weight="400" fill="#2d2d2d">&lt;svg viewBox=&quot;0 0 {w} {h}&quot;&gt;</text>
<line x1="259" y1="62" x2="259" y2="91" stroke="#d4c4a0" stroke-width="0.5"/>
<rect x="1" y="91" width="672" height="29" fill="#f8f4ee"/>
<line x1="1" y1="120" x2="673" y2="120" stroke="#d4c4a0" stroke-width="0.5"/>
<text x="13" y="110.0" font-size="13" font-weight="400" fill="#2d2d2d">Rect(x, y, w, h, fill)</text>
<text x="271" y="110.0" font-size="13" font-weight="400" fill="#2d2d2d">&lt;rect x y width height fill /&gt;</text>
<line x1="259" y1="91" x2="259" y2="120" stroke="#d4c4a0" stroke-width="0.5"/>
<rect x="1" y="120" width="672" height="29" fill="#ffffff"/>
<line x1="1" y1="149" x2="673" y2="149" stroke="#d4c4a0" stroke-width="0.5"/>
<text x="13" y="139.1" font-size="13" font-weight="400" fill="#2d2d2d">Line(x1, y1, x2, y2)</text>
<text x="271" y="139.1" font-size="13" font-weight="400" fill="#2d2d2d">&lt;line x1 y1 x2 y2 /&gt;</text>
<line x1="259" y1="120" x2="259" y2="149" stroke="#d4c4a0" stroke-width="0.5"/>
<rect x="1" y="149" width="672" height="29" fill="#f8f4ee"/>
<line x1="1" y1="178" x2="673" y2="178" stroke="#d4c4a0" stroke-width="0.5"/>
<text x="13" y="168.1" font-size="13" font-weight="400" fill="#2d2d2d">String(x, y, text, font, size)</text>
<text x="271" y="168.1" font-size="13" font-weight="400" fill="#2d2d2d">&lt;text x y font-family font-size&gt;</text>
<line x1="259" y1="149" x2="259" y2="178" stroke="#d4c4a0" stroke-width="0.5"/>
<rect x="1" y="178" width="672" height="29" fill="#ffffff"/>
<line x1="1" y1="207" x2="673" y2="207" stroke="#d4c4a0" stroke-width="0.5"/>
<text x="13" y="197.1" font-size="13" font-weight="400" fill="#2d2d2d">_shadowed_rect(...)</text>
<text x="271" y="197.1" font-size="13" font-weight="400" fill="#2d2d2d">&lt;ShadowedRect /&gt; component with &lt;filter&gt;</text>
<line x1="259" y1="178" x2="259" y2="207" stroke="#d4c4a0" stroke-width="0.5"/>
<rect x="1" y="207" width="672" height="29" fill="#f8f4ee"/>
<line x1="1" y1="236" x2="673" y2="236" stroke="#d4c4a0" stroke-width="0.5"/>
<text x="13" y="226.1" font-size="13" font-weight="400" fill="#2d2d2d">dim_line(...)</text>
<text x="271" y="226.1" font-size="13" font-weight="400" fill="#2d2d2d">&lt;DimensionLine /&gt; component (line + ticks + label)</text>
<line x1="259" y1="207" x2="259" y2="236" stroke="#d4c4a0" stroke-width="0.5"/>
<rect x="1" y="236" width="672" height="29" fill="#ffffff"/>
<line x1="1" y1="265" x2="673" y2="265" stroke="#d4c4a0" stroke-width="0.5"/>
<text x="13" y="255.1" font-size="13" font-weight="400" fill="#2d2d2d">_highlight_edge(...)</text>
<text x="271" y="255.1" font-size="13" font-weight="400" fill="#2d2d2d">&lt;EdgeHighlight /&gt; with dashed/solid stroke</text>
<line x1="259" y1="236" x2="259" y2="265" stroke="#d4c4a0" stroke-width="0.5"/>
<rect x="1" y="265" width="672" height="29" fill="#f8f4ee"/>
<text x="13" y="284.1" font-size="13" font-weight="400" fill="#2d2d2d">_draw_handle(...)</text>
<text x="271" y="284.1" font-size="13" font-weight="400" fill="#2d2d2d">&lt;Handle /&gt; component</text>
<line x1="259" y1="265" x2="259" y2="294" stroke="#d4c4a0" stroke-width="0.5"/>
<rect x="1" y="33" width="672" height="261" fill="none" stroke="#d4c4a0" stroke-width="1" rx="4"/>
</svg>