<svg xmlns="http://www.w3.org/2000/svg" width="687" height="324" viewBox="0 0 687 324">
<style>text{font-family:system-ui,-apple-system,'Segoe UI',Roboto,Helvetica,Arial,sans-serif}</style>
<text x="344" y="22.0" text-anchor="middle" font-size="15" font-weight="700" fill="#5a4218">4.2 PDF page structure (matches existing quality)</text>
<rect x="1" y="33" width="685" height="29" fill="#5a4218" rx="4"/>
<rect x="1" y="58" width="685" height="4" fill="#5a4218"/>
<text x="31" y="52.0" text-anchor="middle" font-size="13" font-weight="700" fill="#ffffff">Page</text>
<text x="284" y="52.0" text-anchor="middle" font-size="13" font-weight="700" fill="#ffffff">Content</text>
<text x="596" y="52.0" text-anchor="middle" font-size="13" font-weight="700" fill="#ffffff">Source</text>
<rect x="1" y="62" width="685" height="29" fill="#ffffff"/>
<line x1="1" y1="91" x2="686" y2="91" stroke="#d4c4a0" stroke-width="0.5"/>
<text x="13" y="81.0" font-size="13" font-weight="400" fill="#2d2d2d">1</text>
<text x="73" y="81.0" font-size="13" font-weight="700" fill="#2d2d2d">Catalog cover — title, project meta, at-a-glance stats</text>
<line x1="61" y1="62" x2="61" y2="91" stroke="#d4c4a0" stroke-width="0.5"/>
<text x="518" y="81.0" font-size="13" font-weight="400" fill="#2d2d2d">make_catalog_cover()</text>
<line x1="506" y1="62" x2="506" y2="91" stroke="#d4c4a0" stroke-width="0.5"/>
<rect x="1" y="91" width="685" height="29" fill="#f8f4ee"/>
<line x1="1" y1="120" x2="686" y2="120" stroke="#d4c4a0" stroke-width="0.5"/>
<text x="13" y="110.0" font-size="13" font-weight="400" fill="#2d2d2d">2</text>
<text x="73" y="110.0" font-size="13" font-weight="700" fill="#2d2d2d">Product card — hero specs, feature callouts</text>
<line x1="61" y1="91" x2="61" y2="120" stroke="#d4c4a0" stroke-width="0.5"/>
<text x="518" y="110.0" font-size="13" font-weight="400" fill="#2d2d2d">make_product_card()</text>
<line x1="506" y1="91" x2="506" y2="120" stroke="#d4c4a0" stroke-width="0.5"/>
<rect x="1" y="120" width="685" height="29" fill="#ffffff"/>
<line x1="1" y1="149" x2="686" y2="149" stroke="#d4c4a0" stroke-width="0.5"/>
<text x="13" y="139.1" font-size="13" font-weight="400" fill="#2d2d2d">3</text>
<text x="73" y="139.1" font-size="13" font-weight="700" fill="#2d2d2d">Dimensioned specs — all formulas + calculated values</text>
<line x1="61" y1="120" x2="61" y2="149" stroke="#d4c4a0" stroke-width="0.5"/>
<text x="518" y="139.1" font-size="13" font-weight="400" fill="#2d2d2d">Inline table</text>
<line x1="506" y1="120" x2="506" y2="149" stroke="#d4c4a0" stroke-width="0.5"/>
<rect x="1" y="149" width="685" height="29" fill="#f8f4ee"/>
<line x1="1" y1="178" x2="686" y2="178" stroke="#d4c4a0" stroke-width="0.5"/>
<text x="13" y="168.1" font-size="13" font-weight="400" fill="#2d2d2d">4</text>
<text x="73" y="168.1" font-size="13" font-weight="700" fill="#2d2d2d">Cut list — full parts table with edge banding</text>
<line x1="61" y1="149" x2="61" y2="178" stroke="#d4c4a0" stroke-width="0.5"/>
<text x="518" y="168.1" font-size="13" font-weight="400" fill="#2d2d2d">make_table()</text>
<line x1="506" y1="149" x2="506" y2="178" stroke="#d4c4a0" stroke-width="0.5"/>
<rect x="1" y="178" width="685" height="29" fill="#ffffff"/>
<line x1="1" y1="207" x2="686" y2="207" stroke="#d4c4a0" stroke-width="0.5"/>
<text x="13" y="197.1" font-size="13" font-weight="400" fill="#2d2d2d">5–7</text>
<text x="73" y="197.1" font-size="13" font-weight="700" fill="#2d2d2d">Cut plan — sheet layouts with yield %</text>
<line x1="61" y1="178" x2="61" y2="207" stroke="#d4c4a0" stroke-width="0.5"/>
<text x="518" y="197.1" font-size="13" font-weight="400" fill="#2d2d2d">draw_cut_sheet()</text>
<line x1="506" y1="178" x2="506" y2="207" stroke="#d4c4a0" stroke-width="0.5"/>
<rect x="1" y="207" width="685" height="29" fill="#f8f4ee"/>
<line x1="1" y1="236" x2="686" y2="236" stroke="#d4c4a0" stroke-width="0.5"/>
<text x="13" y="226.1" font-size="13" font-weight="400" fill="#2d2d2d">8–9</text>
<text x="73" y="226.1" font-size="13" font-weight="700" fill="#2d2d2d">Technical drawings — front, side, top, 3D views</text>
<line x1="61" y1="207" x2="61" y2="236" stroke="#d4c4a0" stroke-width="0.5"/>
<text x="518" y="226.1" font-size="13" font-weight="400" fill="#2d2d2d">SVG → PDF</text>
<line x1="506" y1="207" x2="506" y2="236" stroke="#d4c4a0" stroke-width="0.5"/>
<rect x="1" y="236" width="685" height="29" fill="#ffffff"/>
<line x1="1" y1="265" x2="686" y2="265" stroke="#d4c4a0" stroke-width="0.5"/>
<text x="13" y="255.1" font-size="13" font-weight="400" fill="#2d2d2d">10</text>
<text x="73" y="255.1" font-size="13" font-weight="700" fill="#2d2d2d">Drilling &amp; boring — hinge cups, shelf pins</text>
<line x1="61" y1="236" x2="61" y2="265" stroke="#d4c4a0" stroke-width="0.5"/>
<text x="518" y="255.1" font-size="13" font-weight="400" fill="#2d2d2d">Text + diagram</text>
<line x1="506" y1="236" x2="506" y2="265" stroke="#d4c4a0" stroke-width="0.5"/>
<rect x="1" y="265" width="685" height="29" fill="#f8f4ee"/>
<line x1="1" y1="294" x2="686" y2="294" stroke="#d4c4a0" stroke-width="0.5"/>
<text x="13" y="284.1" font-size="13" font-weight="400" fill="#2d2d2d">11</text>
<text x="73" y="284.1" font-size="13" font-weight="700" fill="#2d2d2d">Assembly sequence — step-by-step instructions</text>
<line x1="61" y1="265" x2="61" y2="294" stroke="#d4c4a0" stroke-width="0.5"/>
<text x="518" y="284.1" font-size="13" font-weight="400" fill="#2d2d2d">Numbered list</text>
<line x1="506" y1="265" x2="506" y2="294" stroke="#d4c4a0" stroke-width="0.5"/>
<rect x="1" y="294" width="685" height="29" fill="#ffffff"/>
<text x="13" y="313.1" font-size="13" font-weight="400" fill="#2d2d2d">12</text>
<text x="73" y="313.1" font-size="13" font-weight="700" fill="#2d2d2d">Shopping list — sheet goods + hardware + edge banding</text>
<line x1="61" y1="294" x2="61" y2="323" stroke="#d4c4a0" stroke-width="0.5"/>
<text x="518" y="313.1" font-size="13" font-weight="400" fill="#2d2d2d">Summary table</text>
<line x1="506" y1="294" x2="506" y2="323" stroke="#d4c4a0" stroke-width="0.5"/>
<rect x="1" y="33" width="685" height="290" fill="none" stroke="#d4c4a0" stroke-width="1" rx="4"/>
</svg>