<svg xmlns="http://www.w3.org/2000/svg" width="916" height="208" viewBox="0 0 916 208">
<style>text{font-family:system-ui,-apple-system,'Segoe UI',Roboto,Helvetica,Arial,sans-serif}</style>
<text x="458" y="22.0" text-anchor="middle" font-size="15" font-weight="700" fill="#5a4218">3.3 User-facing optimizer modes</text>
<rect x="1" y="33" width="914" height="29" fill="#5a4218" rx="4"/>
<rect x="1" y="58" width="914" height="4" fill="#5a4218"/>
<text x="107" y="52.0" text-anchor="middle" font-size="13" font-weight="700" fill="#ffffff">Mode</text>
<text x="439" y="52.0" text-anchor="middle" font-size="13" font-weight="700" fill="#ffffff">Description</text>
<text x="790" y="52.0" text-anchor="middle" font-size="13" font-weight="700" fill="#ffffff">User selects</text>
<rect x="1" y="62" width="914" height="29" fill="#ffffff"/>
<line x1="1" y1="91" x2="915" y2="91" stroke="#d4c4a0" stroke-width="0.5"/>
<text x="13" y="81.0" font-size="13" font-weight="700" fill="#2d2d2d">Auto-optimize</text>
<text x="224" y="81.0" font-size="13" font-weight="400" fill="#2d2d2d">&quot;Find best dimensions&quot; — optimizer tries all parameters</text>
<line x1="212" y1="62" x2="212" y2="91" stroke="#d4c4a0" stroke-width="0.5"/>
<text x="677" y="81.0" font-size="13" font-weight="400" fill="#2d2d2d">Which param(s) can change</text>
<line x1="665" y1="62" x2="665" y2="91" stroke="#d4c4a0" stroke-width="0.5"/>
<rect x="1" y="91" width="914" height="29" fill="#f8f4ee"/>
<line x1="1" y1="120" x2="915" y2="120" stroke="#d4c4a0" stroke-width="0.5"/>
<text x="13" y="110.0" font-size="13" font-weight="700" fill="#2d2d2d">Fix external, flex depth</text>
<text x="224" y="110.0" font-size="13" font-weight="400" fill="#2d2d2d">Keep W×H, vary D (Plan B/C approach)</text>
<line x1="212" y1="91" x2="212" y2="120" stroke="#d4c4a0" stroke-width="0.5"/>
<text x="677" y="110.0" font-size="13" font-weight="400" fill="#2d2d2d">Max depth reduction tolerance</text>
<line x1="665" y1="91" x2="665" y2="120" stroke="#d4c4a0" stroke-width="0.5"/>
<rect x="1" y="120" width="914" height="29" fill="#ffffff"/>
<line x1="1" y1="149" x2="915" y2="149" stroke="#d4c4a0" stroke-width="0.5"/>
<text x="13" y="139.1" font-size="13" font-weight="700" fill="#2d2d2d">Fix depth, flex width</text>
<text x="224" y="139.1" font-size="13" font-weight="400" fill="#2d2d2d">Keep D, nudge W for better nesting</text>
<line x1="212" y1="120" x2="212" y2="149" stroke="#d4c4a0" stroke-width="0.5"/>
<text x="677" y="139.1" font-size="13" font-weight="400" fill="#2d2d2d">Max width change tolerance</text>
<line x1="665" y1="120" x2="665" y2="149" stroke="#d4c4a0" stroke-width="0.5"/>
<rect x="1" y="149" width="914" height="29" fill="#f8f4ee"/>
<line x1="1" y1="178" x2="915" y2="178" stroke="#d4c4a0" stroke-width="0.5"/>
<text x="13" y="168.1" font-size="13" font-weight="700" fill="#2d2d2d">Budget mode</text>
<text x="224" y="168.1" font-size="13" font-weight="400" fill="#2d2d2d">Target a sheet count, find dims that fit</text>
<line x1="212" y1="149" x2="212" y2="178" stroke="#d4c4a0" stroke-width="0.5"/>
<text x="677" y="168.1" font-size="13" font-weight="400" fill="#2d2d2d">Target sheet count</text>
<line x1="665" y1="149" x2="665" y2="178" stroke="#d4c4a0" stroke-width="0.5"/>
<rect x="1" y="178" width="914" height="29" fill="#ffffff"/>
<text x="13" y="197.1" font-size="13" font-weight="700" fill="#2d2d2d">Material swap</text>
<text x="224" y="197.1" font-size="13" font-weight="400" fill="#2d2d2d">Same dims, different material thickness</text>
<line x1="212" y1="178" x2="212" y2="207" stroke="#d4c4a0" stroke-width="0.5"/>
<text x="677" y="197.1" font-size="13" font-weight="400" fill="#2d2d2d">Candidate materials</text>
<line x1="665" y1="178" x2="665" y2="207" stroke="#d4c4a0" stroke-width="0.5"/>
<rect x="1" y="33" width="914" height="174" fill="none" stroke="#d4c4a0" stroke-width="1" rx="4"/>
</svg>