<svg xmlns="http://www.w3.org/2000/svg" width="654" height="266" viewBox="0 0 654 266">
<style>text{font-family:system-ui,-apple-system,'Segoe UI',Roboto,Helvetica,Arial,sans-serif}</style>
<text x="327" y="22.0" text-anchor="middle" font-size="15" font-weight="700" fill="#5a4218">1.4 Configurator components</text>
<rect x="1" y="33" width="652" height="29" fill="#5a4218" rx="4"/>
<rect x="1" y="58" width="652" height="4" fill="#5a4218"/>
<text x="87" y="52.0" text-anchor="middle" font-size="13" font-weight="700" fill="#ffffff">Component</text>
<text x="413" y="52.0" text-anchor="middle" font-size="13" font-weight="700" fill="#ffffff">Description</text>
<rect x="1" y="62" width="652" height="29" fill="#ffffff"/>
<line x1="1" y1="91" x2="653" y2="91" stroke="#d4c4a0" stroke-width="0.5"/>
<text x="13" y="81.0" font-size="13" font-weight="400" fill="#2d2d2d">DimensionSliders</text>
<text x="185" y="81.0" font-size="13" font-weight="400" fill="#2d2d2d">Width/Height/Depth with numeric input + range slider, real-time validation</text>
<line x1="173" y1="62" x2="173" y2="91" stroke="#d4c4a0" stroke-width="0.5"/>
<rect x="1" y="91" width="652" height="29" fill="#f8f4ee"/>
<line x1="1" y1="120" x2="653" y2="120" stroke="#d4c4a0" stroke-width="0.5"/>
<text x="13" y="110.0" font-size="13" font-weight="400" fill="#2d2d2d">MaterialSelector</text>
<text x="185" y="110.0" font-size="13" font-weight="400" fill="#2d2d2d">Dropdown grouped by category, shows thickness + color swatch</text>
<line x1="173" y1="91" x2="173" y2="120" stroke="#d4c4a0" stroke-width="0.5"/>
<rect x="1" y="120" width="652" height="29" fill="#ffffff"/>
<line x1="1" y1="149" x2="653" y2="149" stroke="#d4c4a0" stroke-width="0.5"/>
<text x="13" y="139.1" font-size="13" font-weight="400" fill="#2d2d2d">ShelfConfigurator</text>
<text x="185" y="139.1" font-size="13" font-weight="400" fill="#2d2d2d">Shelf count stepper + equal/custom spacing toggle; drag shelf positions</text>
<line x1="173" y1="120" x2="173" y2="149" stroke="#d4c4a0" stroke-width="0.5"/>
<rect x="1" y="149" width="652" height="29" fill="#f8f4ee"/>
<line x1="1" y1="178" x2="653" y2="178" stroke="#d4c4a0" stroke-width="0.5"/>
<text x="13" y="168.1" font-size="13" font-weight="400" fill="#2d2d2d">DoorConfigurator</text>
<text x="185" y="168.1" font-size="13" font-weight="400" fill="#2d2d2d">Single/double, handle style, reveal gap</text>
<line x1="173" y1="149" x2="173" y2="178" stroke="#d4c4a0" stroke-width="0.5"/>
<rect x="1" y="178" width="652" height="29" fill="#ffffff"/>
<line x1="1" y1="207" x2="653" y2="207" stroke="#d4c4a0" stroke-width="0.5"/>
<text x="13" y="197.1" font-size="13" font-weight="400" fill="#2d2d2d">EdgeBandingSelector</text>
<text x="185" y="197.1" font-size="13" font-weight="400" fill="#2d2d2d">All/doors-only/none with linear-meter estimate</text>
<line x1="173" y1="178" x2="173" y2="207" stroke="#d4c4a0" stroke-width="0.5"/>
<rect x="1" y="207" width="652" height="29" fill="#f8f4ee"/>
<line x1="1" y1="236" x2="653" y2="236" stroke="#d4c4a0" stroke-width="0.5"/>
<text x="13" y="226.1" font-size="13" font-weight="400" fill="#2d2d2d">LanguageToggle</text>
<text x="185" y="226.1" font-size="13" font-weight="400" fill="#2d2d2d">EN ↔ HE with full RTL layout flip</text>
<line x1="173" y1="207" x2="173" y2="236" stroke="#d4c4a0" stroke-width="0.5"/>
<rect x="1" y="236" width="652" height="29" fill="#ffffff"/>
<text x="13" y="255.1" font-size="13" font-weight="400" fill="#2d2d2d">ThemeToggle</text>
<text x="185" y="255.1" font-size="13" font-weight="400" fill="#2d2d2d">Light / dark</text>
<line x1="173" y1="236" x2="173" y2="265" stroke="#d4c4a0" stroke-width="0.5"/>
<rect x="1" y="33" width="652" height="232" fill="none" stroke="#d4c4a0" stroke-width="1" rx="4"/>
</svg>