<svg xmlns="http://www.w3.org/2000/svg" width="904" height="353" viewBox="0 0 904 353">
<style>text{font-family:system-ui,-apple-system,'Segoe UI',Roboto,Helvetica,Arial,sans-serif}</style>
<text x="452" y="22.0" text-anchor="middle" font-size="15" font-weight="700" fill="#5a4218">Recommended Stack: Full Client-Side SPA</text>
<rect x="1" y="33" width="902" height="29" fill="#5a4218" rx="4"/>
<rect x="1" y="58" width="902" height="4" fill="#5a4218"/>
<text x="72" y="52.0" text-anchor="middle" font-size="13" font-weight="700" fill="#ffffff">Layer</text>
<text x="283" y="52.0" text-anchor="middle" font-size="13" font-weight="700" fill="#ffffff">Technology</text>
<text x="663" y="52.0" text-anchor="middle" font-size="13" font-weight="700" fill="#ffffff">Rationale</text>
<rect x="1" y="62" width="902" height="29" fill="#ffffff"/>
<line x1="1" y1="91" x2="903" y2="91" stroke="#d4c4a0" stroke-width="0.5"/>
<text x="13" y="81.0" font-size="13" font-weight="700" fill="#2d2d2d">Framework</text>
<text x="154" y="81.0" font-size="13" font-weight="400" fill="#2d2d2d">React 19 + TypeScript</text>
<line x1="142" y1="62" x2="142" y2="91" stroke="#d4c4a0" stroke-width="0.5"/>
<text x="435" y="81.0" font-size="13" font-weight="400" fill="#2d2d2d">Component model fits configurator UI; strong ecosystem</text>
<line x1="423" y1="62" x2="423" y2="91" stroke="#d4c4a0" stroke-width="0.5"/>
<rect x="1" y="91" width="902" height="29" fill="#f8f4ee"/>
<line x1="1" y1="120" x2="903" y2="120" stroke="#d4c4a0" stroke-width="0.5"/>
<text x="13" y="110.0" font-size="13" font-weight="700" fill="#2d2d2d">Build</text>
<text x="154" y="110.0" font-size="13" font-weight="400" fill="#2d2d2d">Vite 6</text>
<line x1="142" y1="91" x2="142" y2="120" stroke="#d4c4a0" stroke-width="0.5"/>
<text x="435" y="110.0" font-size="13" font-weight="400" fill="#2d2d2d">Fast HMR, tree-shaking, GitHub Pages deploy in seconds</text>
<line x1="423" y1="91" x2="423" y2="120" stroke="#d4c4a0" stroke-width="0.5"/>
<rect x="1" y="120" width="902" height="29" fill="#ffffff"/>
<line x1="1" y1="149" x2="903" y2="149" stroke="#d4c4a0" stroke-width="0.5"/>
<text x="13" y="139.1" font-size="13" font-weight="700" fill="#2d2d2d">Styling</text>
<text x="154" y="139.1" font-size="13" font-weight="400" fill="#2d2d2d">Tailwind CSS 4</text>
<line x1="142" y1="120" x2="142" y2="149" stroke="#d4c4a0" stroke-width="0.5"/>
<text x="435" y="139.1" font-size="13" font-weight="400" fill="#2d2d2d">Rapid UI, dark/light theme, responsive out of the box</text>
<line x1="423" y1="120" x2="423" y2="149" stroke="#d4c4a0" stroke-width="0.5"/>
<rect x="1" y="149" width="902" height="29" fill="#f8f4ee"/>
<line x1="1" y1="178" x2="903" y2="178" stroke="#d4c4a0" stroke-width="0.5"/>
<text x="13" y="168.1" font-size="13" font-weight="700" fill="#2d2d2d">State</text>
<text x="154" y="168.1" font-size="13" font-weight="400" fill="#2d2d2d">Zustand</text>
<line x1="142" y1="149" x2="142" y2="178" stroke="#d4c4a0" stroke-width="0.5"/>
<text x="435" y="168.1" font-size="13" font-weight="400" fill="#2d2d2d">Lightweight, perfect for a config-object store</text>
<line x1="423" y1="149" x2="423" y2="178" stroke="#d4c4a0" stroke-width="0.5"/>
<rect x="1" y="178" width="902" height="29" fill="#ffffff"/>
<line x1="1" y1="207" x2="903" y2="207" stroke="#d4c4a0" stroke-width="0.5"/>
<text x="13" y="197.1" font-size="13" font-weight="700" fill="#2d2d2d">PDF Engine</text>
<text x="154" y="197.1" font-size="13" font-weight="400" fill="#2d2d2d">@react-pdf/renderer</text>
<line x1="142" y1="178" x2="142" y2="207" stroke="#d4c4a0" stroke-width="0.5"/>
<text x="435" y="197.1" font-size="13" font-weight="400" fill="#2d2d2d">React components → multi-page PDF; supports RTL, custom fonts, SVG drawings</text>
<line x1="423" y1="178" x2="423" y2="207" stroke="#d4c4a0" stroke-width="0.5"/>
<rect x="1" y="207" width="902" height="29" fill="#f8f4ee"/>
<line x1="1" y1="236" x2="903" y2="236" stroke="#d4c4a0" stroke-width="0.5"/>
<text x="13" y="226.1" font-size="13" font-weight="700" fill="#2d2d2d">Cabinet Preview</text>
<text x="154" y="226.1" font-size="13" font-weight="400" fill="#2d2d2d">Inline SVG (React)</text>
<line x1="142" y1="207" x2="142" y2="236" stroke="#d4c4a0" stroke-width="0.5"/>
<text x="435" y="226.1" font-size="13" font-weight="400" fill="#2d2d2d">Port existing ReportLab Drawing logic to SVG components; live preview</text>
<line x1="423" y1="207" x2="423" y2="236" stroke="#d4c4a0" stroke-width="0.5"/>
<rect x="1" y="236" width="902" height="29" fill="#ffffff"/>
<line x1="1" y1="265" x2="903" y2="265" stroke="#d4c4a0" stroke-width="0.5"/>
<text x="13" y="255.1" font-size="13" font-weight="700" fill="#2d2d2d">i18n</text>
<text x="154" y="255.1" font-size="13" font-weight="400" fill="#2d2d2d">react-i18next</text>
<line x1="142" y1="236" x2="142" y2="265" stroke="#d4c4a0" stroke-width="0.5"/>
<text x="435" y="255.1" font-size="13" font-weight="400" fill="#2d2d2d">EN + HE with RTL layout switching</text>
<line x1="423" y1="236" x2="423" y2="265" stroke="#d4c4a0" stroke-width="0.5"/>
<rect x="1" y="265" width="902" height="29" fill="#f8f4ee"/>
<line x1="1" y1="294" x2="903" y2="294" stroke="#d4c4a0" stroke-width="0.5"/>
<text x="13" y="284.1" font-size="13" font-weight="700" fill="#2d2d2d">Deployment</text>
<text x="154" y="284.1" font-size="13" font-weight="400" fill="#2d2d2d">GitHub Pages (existing pages.yml)</text>
<line x1="142" y1="265" x2="142" y2="294" stroke="#d4c4a0" stroke-width="0.5"/>
<text x="435" y="284.1" font-size="13" font-weight="400" fill="#2d2d2d">Zero cost, already configured</text>
<line x1="423" y1="265" x2="423" y2="294" stroke="#d4c4a0" stroke-width="0.5"/>
<rect x="1" y="294" width="902" height="29" fill="#ffffff"/>
<line x1="1" y1="323" x2="903" y2="323" stroke="#d4c4a0" stroke-width="0.5"/>
<text x="13" y="313.1" font-size="13" font-weight="700" fill="#2d2d2d">Testing</text>
<text x="154" y="313.1" font-size="13" font-weight="400" fill="#2d2d2d">Vitest + React Testing Library</text>
<line x1="142" y1="294" x2="142" y2="323" stroke="#d4c4a0" stroke-width="0.5"/>
<text x="435" y="313.1" font-size="13" font-weight="400" fill="#2d2d2d">Fast, Vite-native</text>
<line x1="423" y1="294" x2="423" y2="323" stroke="#d4c4a0" stroke-width="0.5"/>
<rect x="1" y="323" width="902" height="29" fill="#f8f4ee"/>
<text x="13" y="342.1" font-size="13" font-weight="700" fill="#2d2d2d">Linting</text>
<text x="154" y="342.1" font-size="13" font-weight="400" fill="#2d2d2d">ESLint + Prettier</text>
<line x1="142" y1="323" x2="142" y2="352" stroke="#d4c4a0" stroke-width="0.5"/>
<text x="435" y="342.1" font-size="13" font-weight="400" fill="#2d2d2d">Replaces ruff (Python era)</text>
<line x1="423" y1="323" x2="423" y2="352" stroke="#d4c4a0" stroke-width="0.5"/>
<rect x="1" y="33" width="902" height="319" fill="none" stroke="#d4c4a0" stroke-width="1" rx="4"/>
</svg>