<svg xmlns="http://www.w3.org/2000/svg" width="951" height="208" viewBox="0 0 951 208">
<style>text{font-family:system-ui,-apple-system,'Segoe UI',Roboto,Helvetica,Arial,sans-serif}</style>
<text x="476" y="22.0" text-anchor="middle" font-size="15" font-weight="700" fill="#5a4218">Risk Register</text>
<rect x="1" y="33" width="949" height="29" fill="#5a4218" rx="4"/>
<rect x="1" y="58" width="949" height="4" fill="#5a4218"/>
<text x="200" y="52.0" text-anchor="middle" font-size="13" font-weight="700" fill="#ffffff">Risk</text>
<text x="435" y="52.0" text-anchor="middle" font-size="13" font-weight="700" fill="#ffffff">Impact</text>
<text x="710" y="52.0" text-anchor="middle" font-size="13" font-weight="700" fill="#ffffff">Mitigation</text>
<rect x="1" y="62" width="949" height="29" fill="#ffffff"/>
<line x1="1" y1="91" x2="950" y2="91" stroke="#d4c4a0" stroke-width="0.5"/>
<text x="13" y="81.0" font-size="13" font-weight="400" fill="#2d2d2d">@react-pdf/renderer can&#x27;t replicate all drawings</text>
<text x="411" y="81.0" font-size="13" font-weight="400" fill="#2d2d2d">High</text>
<line x1="399" y1="62" x2="399" y2="91" stroke="#d4c4a0" stroke-width="0.5"/>
<text x="482" y="81.0" font-size="13" font-weight="400" fill="#2d2d2d">Prototype the most complex drawing (cut sheet) in Phase 0 as a spike</text>
<line x1="470" y1="62" x2="470" y2="91" stroke="#d4c4a0" stroke-width="0.5"/>
<rect x="1" y="91" width="949" height="29" fill="#f8f4ee"/>
<line x1="1" y1="120" x2="950" y2="120" stroke="#d4c4a0" stroke-width="0.5"/>
<text x="13" y="110.0" font-size="13" font-weight="400" fill="#2d2d2d">Hebrew RTL in PDF breaks layout</text>
<text x="411" y="110.0" font-size="13" font-weight="400" fill="#2d2d2d">Medium</text>
<line x1="399" y1="91" x2="399" y2="120" stroke="#d4c4a0" stroke-width="0.5"/>
<text x="482" y="110.0" font-size="13" font-weight="400" fill="#2d2d2d">Test RTL rendering early; fallback to jsPDF if needed</text>
<line x1="470" y1="91" x2="470" y2="120" stroke="#d4c4a0" stroke-width="0.5"/>
<rect x="1" y="120" width="949" height="29" fill="#ffffff"/>
<line x1="1" y1="149" x2="950" y2="149" stroke="#d4c4a0" stroke-width="0.5"/>
<text x="13" y="139.1" font-size="13" font-weight="400" fill="#2d2d2d">Cut optimizer doesn&#x27;t match manual quality</text>
<text x="411" y="139.1" font-size="13" font-weight="400" fill="#2d2d2d">Medium</text>
<line x1="399" y1="120" x2="399" y2="149" stroke="#d4c4a0" stroke-width="0.5"/>
<text x="482" y="139.1" font-size="13" font-weight="400" fill="#2d2d2d">Use existing plan A→B→C transitions as golden-path regression tests</text>
<line x1="470" y1="120" x2="470" y2="149" stroke="#d4c4a0" stroke-width="0.5"/>
<rect x="1" y="149" width="949" height="29" fill="#f8f4ee"/>
<line x1="1" y1="178" x2="950" y2="178" stroke="#d4c4a0" stroke-width="0.5"/>
<text x="13" y="168.1" font-size="13" font-weight="400" fill="#2d2d2d">Font licensing on web</text>
<text x="411" y="168.1" font-size="13" font-weight="400" fill="#2d2d2d">Low</text>
<line x1="399" y1="149" x2="399" y2="178" stroke="#d4c4a0" stroke-width="0.5"/>
<text x="482" y="168.1" font-size="13" font-weight="400" fill="#2d2d2d">Arial/David are system fonts; bundle with license or use open alternatives (Inter, Noto)</text>
<line x1="470" y1="149" x2="470" y2="178" stroke="#d4c4a0" stroke-width="0.5"/>
<rect x="1" y="178" width="949" height="29" fill="#ffffff"/>
<text x="13" y="197.1" font-size="13" font-weight="400" fill="#2d2d2d">Performance with large part lists</text>
<text x="411" y="197.1" font-size="13" font-weight="400" fill="#2d2d2d">Low</text>
<line x1="399" y1="178" x2="399" y2="207" stroke="#d4c4a0" stroke-width="0.5"/>
<text x="482" y="197.1" font-size="13" font-weight="400" fill="#2d2d2d">Web Workers for optimization; memoize SVG renders</text>
<line x1="470" y1="178" x2="470" y2="207" stroke="#d4c4a0" stroke-width="0.5"/>
<rect x="1" y="33" width="949" height="174" fill="none" stroke="#d4c4a0" stroke-width="1" rx="4"/>
</svg>